<?xml version="1.0" standalone="no"?>
<!DOCTYPE svg PUBLIC "-//W3C//DTD SVG 20010904//EN"
 "http://www.w3.org/TR/2001/REC-SVG-20010904/DTD/svg10.dtd">
<svg version="1.0" xmlns="http://www.w3.org/2000/svg"
 width="843.000000pt" height="1279.000000pt" viewBox="0 0 843.000000 1279.000000"
 preserveAspectRatio="xMidYMid meet">

<g transform="translate(0.000000,1279.000000) scale(0.100000,-0.100000)"
fill="#000000" stroke="none">
<path d="M4455 12283 c3 -15 1 -93 -6 -173 l-13 -145 -11 77 c-10 71 -19 98
-29 87 -7 -7 -26 -233 -27 -325 -1 -49 -4 -75 -6 -59 -24 186 -87 435 -110
435 -9 0 -13 -15 -13 -47 0 -27 -9 -105 -20 -175 -20 -129 -144 -704 -181
-836 -27 -98 -138 -426 -181 -537 -45 -115 -182 -416 -216 -475 -48 -84 -165
-254 -287 -420 -68 -91 -132 -181 -144 -200 l-22 -35 8 65 c15 124 2 260 -25
260 -5 0 -17 -46 -26 -102 -21 -119 -97 -355 -162 -502 -47 -107 -220 -444
-274 -536 -109 -186 -196 -407 -226 -583 -12 -69 -15 -120 -9 -207 3 -63 5
-133 3 -155 -19 -243 61 -443 260 -650 57 -59 114 -130 137 -170 58 -101 113
-151 243 -219 61 -33 112 -63 112 -66 0 -4 -152 -126 -337 -271 -302 -236
-343 -265 -390 -275 -68 -14 -159 -70 -174 -106 -7 -17 -9 -48 -5 -80 8 -59
35 -1 -238 -498 -56 -102 -108 -197 -115 -211 -7 -15 -33 -43 -57 -63 -24 -20
-44 -43 -44 -51 0 -8 -20 -34 -45 -57 -25 -23 -45 -48 -45 -55 0 -7 -5 -13
-10 -13 -6 0 -33 -46 -59 -103 -26 -56 -59 -115 -72 -132 -47 -58 -93 -250
-70 -293 8 -15 5 -26 -14 -52 -27 -37 -23 -60 11 -60 23 0 24 0 7 -34 -22 -48
-12 -66 36 -66 28 0 49 8 72 27 40 34 109 139 109 167 1 29 49 118 49 91 0
-11 -8 -40 -19 -64 -11 -24 -20 -50 -20 -57 0 -22 -35 -87 -59 -108 -26 -24
-27 -62 -1 -76 43 -23 148 51 174 123 39 108 85 278 90 337 8 78 34 173 45
166 5 -3 11 -20 14 -38 15 -78 48 -181 67 -208 16 -22 30 -30 51 -30 16 0 32
6 35 13 15 39 -49 385 -80 436 -9 14 45 120 101 200 26 36 97 129 159 206 127
160 244 334 264 394 7 23 19 41 27 41 7 0 22 9 33 20 17 17 20 33 20 99 l0 79
338 255 c323 244 339 254 382 255 27 0 52 -7 62 -16 10 -8 42 -23 70 -33 l53
-18 5 -53 c3 -29 14 -69 24 -88 10 -19 19 -51 20 -71 1 -21 14 -55 28 -76 13
-21 30 -61 37 -90 7 -29 28 -78 47 -109 19 -31 34 -64 34 -74 0 -9 10 -31 23
-48 12 -16 36 -48 52 -70 17 -23 46 -49 65 -59 19 -10 49 -33 67 -51 27 -28
38 -33 69 -30 l38 3 26 82 25 82 42 -39 c27 -26 52 -40 69 -40 25 0 26 2 19
36 l-6 36 48 -7 c26 -4 104 -27 173 -52 223 -82 270 -94 365 -99 l89 -4 69
-99 c69 -102 175 -313 154 -306 -7 2 -77 25 -157 50 -310 100 -400 109 -400
42 0 -11 -11 -32 -24 -47 l-23 -28 -39 60 c-41 64 -134 148 -163 148 -9 0 -22
-5 -29 -12 -19 -19 -14 -89 8 -125 30 -49 8 -40 -64 28 -47 43 -71 60 -87 57
-12 -2 -24 -8 -26 -14 -4 -12 97 -118 162 -171 30 -25 34 -30 15 -23 -14 5
-104 37 -200 70 -203 71 -328 133 -460 230 -118 87 -119 88 -139 64 -9 -11
-29 -37 -46 -57 l-30 -38 -99 83 c-54 46 -108 89 -120 96 -26 16 -100 8 -134
-14 -13 -8 -33 -17 -45 -19 -32 -6 -104 -90 -137 -160 -33 -68 -50 -187 -32
-222 9 -17 8 -24 -8 -38 -33 -29 -35 -71 -7 -125 21 -40 23 -50 11 -61 -18
-19 -40 -132 -48 -248 -10 -136 -66 -447 -156 -856 -16 -71 -31 -150 -34 -175
-4 -25 -28 -160 -55 -300 -27 -140 -68 -353 -91 -473 -49 -255 -77 -358 -132
-483 l-40 -92 -49 -6 c-34 -5 -52 -13 -60 -27 -7 -14 -14 -17 -22 -11 -15 11
-232 107 -267 117 -41 12 -135 62 -149 79 -17 21 -60 20 -90 0 -19 -13 -22
-24 -19 -55 3 -34 1 -38 -22 -41 -18 -2 -25 -9 -24 -25 0 -20 -4 -21 -59 -20
-70 2 -81 -10 -43 -48 l25 -25 -22 -4 c-12 -3 -40 -8 -62 -11 -63 -10 -75 -15
-75 -35 0 -12 13 -26 32 -36 18 -9 54 -36 80 -60 26 -24 55 -44 65 -44 10 0
27 -6 38 -14 11 -7 39 -16 62 -19 41 -5 101 -31 226 -98 32 -17 63 -28 70 -24
7 3 23 12 37 20 23 13 25 13 30 -8 4 -14 15 -23 30 -25 14 -2 35 -15 47 -28
23 -25 48 -24 69 2 9 11 19 7 52 -21 22 -20 58 -59 78 -88 109 -150 154 -184
230 -172 72 10 198 124 245 222 l21 44 -22 75 c-16 54 -20 88 -16 122 5 33 1
65 -13 107 l-19 60 24 13 c13 7 27 24 30 37 8 34 -3 91 -23 111 -14 14 -15 42
-10 252 5 197 13 286 46 527 51 370 102 596 236 1050 31 105 74 264 95 355 60
260 71 299 88 312 13 11 15 10 9 -5 -4 -10 -10 -49 -13 -86 -9 -99 10 -196 62
-301 43 -90 129 -225 156 -248 8 -6 57 -16 109 -22 52 -5 157 -18 234 -29 77
-11 187 -25 245 -32 l105 -13 -50 -8 c-64 -11 -511 -15 -547 -5 -26 7 -28 5
-28 -23 0 -40 35 -75 91 -90 24 -7 68 -19 97 -27 29 -8 62 -13 73 -10 11 3 45
-6 76 -20 41 -19 66 -24 97 -21 39 5 42 4 39 -17 -4 -19 6 -24 114 -58 164
-50 182 -53 224 -29 72 42 72 42 168 -59 l88 -92 53 5 c44 5 59 11 82 37 15
17 28 40 28 51 0 19 2 20 30 5 51 -26 186 -13 317 31 13 5 12 2 -4 -10 -13
-10 -23 -24 -23 -33 0 -15 -71 -101 -147 -181 -18 -19 -33 -38 -33 -43 0 -13
45 -29 79 -29 52 0 163 90 193 156 13 27 34 33 23 7 -4 -10 -11 -45 -17 -78
-5 -33 -19 -98 -30 -144 -17 -70 -18 -85 -7 -92 19 -12 32 -11 66 3 15 6 34
10 42 9 19 -3 58 35 98 96 26 41 36 70 43 124 8 65 19 88 43 89 5 0 6 -12 3
-27 -3 -16 -7 -81 -8 -145 -3 -97 0 -120 13 -134 13 -12 21 -13 36 -6 42 23
103 178 103 264 0 20 4 39 9 42 5 4 19 45 32 93 14 51 31 93 42 102 40 33 46
43 52 79 3 20 10 53 16 72 16 51 105 231 129 260 31 38 41 83 25 114 -8 15
-10 28 -4 31 5 4 9 23 9 45 0 29 8 48 36 81 86 104 191 285 401 699 80 157
163 314 183 350 21 36 46 89 54 119 19 65 20 157 3 189 -12 21 -10 27 30 67
l44 44 -19 38 c-11 21 -41 64 -67 95 -45 55 -50 58 -121 74 -58 12 -90 14
-142 7 -64 -8 -71 -7 -152 28 -47 20 -186 85 -310 144 -488 233 -581 275 -746
341 -94 37 -171 73 -171 79 -2 25 -52 194 -67 222 -37 73 -99 91 -227 68 -129
-24 -195 -29 -203 -16 -19 30 -96 -1 -96 -38 0 -9 -7 -11 -22 -6 -36 11 -259
26 -298 20 -19 -3 -58 -13 -87 -21 l-51 -16 -46 33 c-25 19 -45 40 -46 47 0
23 127 148 203 198 93 63 193 105 352 149 259 72 354 106 438 157 45 27 86 53
91 58 20 20 -4 20 -67 0 -36 -12 -78 -20 -93 -18 -20 2 46 32 227 102 139 54
288 116 329 137 94 48 236 154 315 234 70 70 150 184 137 197 -4 4 -30 -13
-58 -40 -27 -26 -90 -69 -139 -94 l-90 -47 116 119 c88 89 132 144 179 221 94
155 116 197 106 206 -5 4 -13 -1 -20 -11 -29 -49 -176 -223 -224 -264 l-52
-45 29 59 c30 61 74 185 131 374 55 179 98 250 260 435 100 114 180 192 262
259 l47 38 -4 74 c-5 79 -30 152 -67 191 -27 29 -35 29 -67 1 -14 -13 -10 -5
10 17 91 102 100 120 125 243 13 64 26 154 30 199 6 73 5 83 -11 89 -12 5 -65
-17 -156 -63 -77 -38 -138 -69 -137 -68 2 2 48 37 103 78 55 42 115 90 133
107 l32 30 -21 83 c-45 178 -120 335 -259 542 -77 116 -179 245 -193 245 -7 0
-19 -12 -28 -28 -9 -15 -46 -75 -81 -133 l-65 -106 -32 87 c-18 48 -56 130
-84 182 -62 110 -197 308 -212 308 -6 0 -47 -54 -90 -119 -44 -66 -81 -118
-82 -117 -2 1 27 66 63 145 77 167 82 140 -57 285 -122 128 -265 251 -372 320
-107 70 -247 136 -288 136 -29 0 -31 -2 -24 -27z m138 -99 c50 -26 104 -55
119 -66 15 -11 37 -20 47 -21 11 0 17 -5 15 -9 -3 -4 2 -8 10 -8 9 0 16 -4 16
-10 0 -5 6 -10 14 -10 8 0 16 -3 18 -7 2 -5 20 -21 42 -37 36 -27 38 -31 32
-69 -9 -52 -49 -158 -212 -560 -74 -181 -132 -332 -129 -335 2 -3 9 6 14 19 5
13 57 141 116 284 143 350 201 501 216 561 6 27 14 51 15 53 2 2 33 -23 68
-57 35 -34 62 -62 59 -62 -3 0 5 -9 19 -20 14 -10 51 -50 82 -89 l57 -69 -25
-59 c-13 -32 -48 -107 -76 -168 -29 -60 -76 -164 -105 -231 -31 -73 -84 -167
-132 -240 -89 -131 -158 -252 -150 -260 3 -3 22 23 42 58 21 35 50 79 66 99
16 20 29 40 29 44 0 9 62 89 72 93 5 2 8 8 8 14 0 6 13 27 29 47 16 20 52 84
79 141 28 58 87 160 133 228 79 117 83 122 115 120 18 -1 31 -5 28 -9 -2 -4 1
-13 8 -21 7 -7 14 -21 16 -31 5 -26 80 -151 114 -188 15 -16 28 -39 28 -49 0
-34 -80 -155 -244 -368 -285 -372 -484 -648 -474 -658 3 -2 27 28 53 68 68
103 218 306 361 490 142 182 241 319 287 394 17 30 35 54 38 54 11 0 86 -170
94 -210 18 -98 17 -104 -23 -165 -77 -117 -455 -548 -954 -1087 -65 -70 -118
-131 -118 -135 0 -11 80 73 659 695 101 108 188 199 195 201 6 2 20 13 31 25
11 12 16 15 10 6 -9 -13 -8 -13 8 -1 9 7 16 21 15 30 -2 9 2 15 9 14 13 -3 99
96 188 217 55 75 73 123 74 198 0 62 15 103 53 146 10 11 20 28 24 38 3 10 8
18 12 19 4 0 19 2 34 4 26 3 38 -9 43 -46 1 -9 14 -29 28 -45 15 -16 30 -37
33 -46 3 -10 9 -18 13 -18 3 0 14 -13 23 -28 23 -39 11 -60 -117 -211 -181
-213 -233 -282 -322 -431 -63 -106 -108 -194 -93 -185 6 3 24 34 42 68 78 156
192 317 368 522 61 71 119 142 128 157 9 16 19 28 23 28 3 0 14 -17 25 -37 10
-21 26 -49 36 -63 57 -88 115 -225 154 -368 l17 -63 -29 -30 c-16 -17 -101
-83 -189 -147 -453 -329 -695 -522 -695 -555 0 -6 33 21 73 60 40 39 88 78
107 87 19 9 78 48 130 87 109 81 218 154 375 249 95 58 227 130 238 130 4 0 3
-23 -8 -190 -8 -134 -14 -179 -27 -205 -6 -11 -85 -95 -174 -186 -90 -92 -164
-172 -164 -178 0 -17 27 -13 42 7 20 28 223 205 257 225 l31 18 21 -33 c18
-29 20 -44 15 -116 -5 -91 -20 -118 -94 -172 -65 -47 -244 -241 -238 -256 3
-8 2 -13 -2 -10 -4 2 -33 -32 -65 -77 -31 -45 -129 -158 -217 -251 -88 -93
-160 -173 -160 -178 0 -16 16 -7 66 40 28 26 62 56 75 67 83 69 120 97 123 94
9 -11 -67 -213 -89 -237 -14 -15 -25 -33 -25 -40 0 -20 -221 -237 -373 -366
-70 -60 -125 -111 -123 -114 8 -8 218 175 412 360 40 37 78 68 85 68 8 0 6 -5
-5 -13 -11 -8 -16 -20 -13 -28 4 -10 6 -9 6 4 1 9 6 17 11 17 6 0 -1 -20 -16
-45 -14 -25 -22 -45 -18 -45 4 0 -1 -7 -12 -15 -10 -8 -15 -15 -10 -15 5 0 1
-10 -10 -22 -10 -12 -14 -18 -7 -14 20 11 -54 -112 -106 -178 -62 -78 -203
-214 -258 -251 -24 -15 -40 -31 -37 -36 5 -9 68 29 139 87 22 17 81 50 130 73
50 23 121 57 159 77 38 19 71 32 74 29 3 -3 -21 -31 -54 -63 -46 -43 -93 -73
-192 -122 -73 -35 -132 -68 -132 -72 0 -5 -7 -8 -15 -8 -8 0 -23 -8 -33 -17
-10 -10 -25 -19 -33 -21 -8 -2 -20 -10 -26 -19 -7 -9 -13 -13 -13 -8 0 5 -10
-1 -22 -12 -13 -11 -136 -66 -274 -121 -301 -121 -554 -232 -554 -243 0 -5 1
-9 3 -9 5 0 234 85 306 114 41 17 83 26 115 25 51 0 51 0 21 -14 -95 -41 -139
-57 -225 -81 -52 -14 -140 -39 -195 -55 -55 -17 -127 -33 -160 -36 -34 -3 -71
-14 -87 -24 -14 -11 -29 -19 -33 -19 -9 0 -99 -62 -103 -72 -2 -4 -9 -8 -16
-8 -7 0 -19 -11 -26 -25 -15 -28 -70 -52 -70 -31 0 7 55 54 123 104 125 92
272 220 263 230 -3 2 -41 -29 -86 -70 -88 -82 -307 -244 -317 -235 -3 4 0 21
8 39 7 17 14 40 14 50 3 37 44 74 186 171 177 120 242 172 368 293 141 135
301 345 301 393 0 9 -13 -8 -29 -37 -72 -130 -227 -307 -394 -451 -130 -112
-364 -267 -412 -274 -22 -3 -48 -8 -59 -13 -16 -6 -17 -5 -6 15 17 33 6 36
-19 5 l-21 -27 0 25 c0 14 13 45 30 69 16 24 30 48 30 53 0 15 -59 -45 -66
-66 -11 -35 -22 -8 -12 30 15 55 45 108 85 152 19 22 30 40 23 40 -19 0 -67
-57 -112 -132 -22 -37 -44 -68 -49 -68 -31 0 26 92 101 163 36 34 144 125 239
202 218 176 241 197 355 314 220 227 450 500 434 516 -3 3 -16 -12 -30 -32
-62 -94 -332 -395 -486 -541 -70 -66 -278 -242 -444 -375 -100 -81 -140 -124
-182 -198 -20 -34 -26 -40 -32 -26 -6 17 -4 34 12 71 6 15 4 18 -8 13 -11 -4
-20 3 -28 22 -9 23 -8 36 5 67 24 58 86 132 165 199 40 33 148 140 241 238
134 141 175 191 200 243 17 36 29 68 26 71 -3 2 -19 -25 -37 -61 -36 -76 -103
-150 -412 -458 -116 -114 -215 -221 -223 -240 -16 -38 -19 -28 -6 20 5 17 6
32 1 32 -4 0 -11 -12 -15 -27 -5 -21 -8 -24 -16 -12 -13 21 -11 87 5 147 15
60 2 70 -21 15 -8 -21 -20 -49 -26 -63 -6 -14 -10 -28 -9 -32 1 -5 -3 -8 -9
-8 -6 0 -8 8 -4 19 3 11 2 22 -2 24 -5 3 -10 -5 -11 -18 -1 -13 3 -27 8 -30 6
-3 10 -11 10 -17 0 -7 -6 -6 -15 2 -12 10 -15 36 -15 119 1 92 8 149 35 251 6
24 6 25 -10 5 -16 -21 -34 -78 -55 -177 -6 -32 -16 -58 -21 -58 -6 0 -7 -6 -3
-12 5 -9 4 -10 -4 -3 -16 15 -32 105 -33 184 -1 84 -17 53 -18 -34 -1 -133 63
-276 143 -319 20 -11 36 -25 36 -32 0 -7 14 -29 30 -47 17 -19 30 -46 30 -60
0 -43 18 -75 49 -92 45 -23 71 -55 71 -88 0 -22 -17 -49 -69 -107 -38 -43 -72
-88 -76 -100 -4 -13 2 -36 17 -63 13 -23 22 -52 20 -64 -12 -77 -276 -194
-436 -193 -66 1 -96 15 -96 47 0 45 -14 84 -33 95 -12 6 -71 21 -132 33 l-110
21 -13 40 c-10 30 -11 57 -3 116 9 64 7 97 -9 195 -26 164 -35 253 -23 253 5
0 -2 24 -16 54 -14 30 -30 52 -34 49 -5 -3 -6 -12 -2 -21 6 -17 12 -75 19
-202 l5 -85 -38 80 c-50 106 -72 196 -73 305 0 57 -4 87 -11 83 -17 -10 -1
-191 26 -283 14 -47 28 -123 32 -170 4 -47 9 -88 12 -92 2 -5 -1 -8 -6 -8 -21
0 -11 -39 29 -116 22 -43 40 -79 40 -81 0 -2 -10 -3 -21 -3 -20 0 -20 -2 -7
-22 8 -13 17 -33 20 -45 5 -20 1 -18 -32 14 -43 40 -85 137 -96 222 -4 28 -10
51 -14 51 -5 0 -11 19 -15 42 -5 30 -4 45 6 52 15 11 14 66 -1 66 -4 0 -14 23
-20 51 -12 51 -9 227 5 309 13 72 74 287 99 350 l26 65 -4 -50 c-12 -119 -15
-229 -7 -205 5 14 9 52 10 86 2 116 37 273 79 354 121 234 187 358 208 391 12
20 20 40 17 43 -4 3 -2 6 3 6 5 0 10 8 11 18 1 9 17 51 36 92 29 63 123 309
132 345 1 6 7 21 12 35 6 14 8 29 5 34 -3 5 0 6 6 2 7 -4 12 -22 11 -39 0 -50
-25 -178 -36 -186 -5 -3 -10 -19 -11 -35 -1 -17 -29 -109 -62 -205 -54 -158
-110 -371 -110 -417 0 -35 9 -6 35 111 30 135 120 415 138 430 7 6 19 30 26
55 26 92 93 209 207 360 235 313 322 458 449 745 48 110 108 233 144 295 26
47 42 83 66 155 36 108 94 335 83 329 -11 -7 -10 -2 7 40 15 35 28 98 29 139
0 9 3 17 6 17 3 0 11 33 18 73 7 39 24 131 37 202 13 72 31 175 39 230 9 55
18 116 22 135 l6 35 13 -25 c7 -14 16 -44 19 -65 12 -84 27 -171 31 -190 20
-82 23 -143 9 -224 -34 -195 -51 -356 -35 -331 39 64 90 380 92 572 1 57 4
130 8 163 l6 60 12 -75 c6 -41 9 -100 7 -130 -2 -30 -1 -49 2 -42 3 6 9 10 14
7 5 -3 11 18 14 47 9 96 26 352 26 391 0 20 5 37 10 37 6 0 52 -21 103 -46z
m-2076 -4126 c-3 -7 -5 -2 -5 12 0 14 2 19 5 13 2 -7 2 -19 0 -25z m1227 -764
c23 -69 30 -108 30 -174 1 -96 -8 -124 -119 -357 -93 -194 -133 -243 -200
-243 -27 0 -327 151 -422 212 -41 26 -74 58 -97 93 -41 61 -138 246 -132 252
2 2 26 1 52 -2 47 -7 50 -9 72 -59 12 -28 46 -91 74 -140 l52 -88 96 4 c160 8
400 102 497 194 l52 49 -18 85 c-11 47 -29 109 -41 139 l-21 54 38 39 c20 21
42 37 47 35 6 -2 24 -44 40 -93z m1080 -175 c32 -25 55 -67 72 -133 l13 -49
-35 34 c-20 19 -42 49 -49 67 -14 33 -44 50 -99 57 -38 5 -120 -26 -193 -74
l-59 -38 -47 46 c-26 26 -47 51 -47 57 0 6 9 19 20 29 19 17 21 17 75 -19 70
-46 87 -48 65 -6 -9 17 -6 20 27 26 21 3 52 10 68 14 17 5 60 9 96 9 53 1 72
-3 93 -20z m-642 -46 c54 -33 71 -74 76 -190 l5 -103 -38 -36 c-21 -19 -39
-33 -41 -31 -2 2 4 39 13 82 25 123 -2 232 -63 255 -41 16 -83 12 -125 -12
-38 -21 -39 -21 -59 -3 -11 10 -17 22 -13 26 32 31 199 38 245 12z m127 1 c54
-16 117 -64 140 -108 13 -23 11 -27 -15 -50 -16 -14 -32 -26 -35 -26 -4 0 -10
15 -13 34 -11 56 -59 113 -108 127 -24 7 -50 18 -58 26 -12 11 -11 13 11 13
14 0 49 -7 78 -16z m-724 -25 c8 -25 -7 -38 -93 -79 -95 -46 -224 -80 -302
-80 -123 0 -139 24 -22 34 42 3 96 13 120 21 24 9 48 13 53 10 5 -4 9 -2 9 4
0 5 9 13 21 16 11 4 42 16 67 28 26 11 53 22 61 23 8 2 26 12 40 23 33 25 38
26 46 0z m244 -68 c-35 -83 -49 -78 -16 6 18 43 33 70 35 61 2 -9 -7 -39 -19
-67z m92 21 c24 -74 -58 -179 -100 -128 -12 14 -11 17 29 124 6 17 16 32 22
32 6 0 8 7 4 15 -4 12 -2 13 14 2 11 -6 25 -27 31 -45z m840 48 c24 -14 24
-50 0 -77 -14 -15 -38 -23 -82 -28 -75 -9 -156 -35 -216 -71 -24 -14 -111 -90
-193 -169 -82 -79 -175 -161 -207 -183 -46 -31 -61 -49 -74 -83 -11 -33 -24
-48 -52 -62 -44 -22 -61 -18 -109 26 -32 29 -47 35 -122 45 -95 12 -180 44
-173 64 5 18 65 15 165 -6 83 -18 84 -18 134 3 28 12 58 21 68 21 27 0 199 92
280 150 41 29 122 94 180 144 231 200 337 260 401 226z m-694 -40 c-43 -27
-86 -32 -71 -8 9 15 65 37 93 38 21 0 18 -5 -22 -30z m238 -10 c-11 -18 -32
-10 -43 15 l-12 25 30 -15 c17 -9 28 -20 25 -25z m-195 -2 c-43 -26 -62 -17
-20 9 19 12 38 19 43 16 5 -3 -6 -14 -23 -25z m-500 -12 c0 -35 -303 -158
-423 -172 -53 -6 -57 -5 -66 17 -8 24 -7 24 65 30 87 8 233 55 336 108 74 38
88 41 88 17z m549 11 c-2 -2 -22 -13 -44 -25 l-40 -22 30 25 c17 14 36 25 44
25 8 0 12 -1 10 -3z m-169 -62 c5 -45 -2 -62 -36 -98 -30 -30 -39 -35 -55 -27
-22 12 -20 41 4 68 9 10 24 40 33 66 16 46 17 47 34 29 10 -10 19 -27 20 -38z
m180 27 c0 -26 -35 -45 -50 -27 -9 11 -6 17 17 29 35 19 33 19 33 -2z m167 12
c-3 -3 -12 -4 -19 -1 -8 3 -5 6 6 6 11 1 17 -2 13 -5z m17 -54 c-5 -4 -21 -10
-36 -14 -21 -5 -28 -3 -28 9 0 8 -1 18 -2 22 -2 4 11 10 27 13 31 6 56 -14 39
-30z m526 -35 c26 -38 42 -46 222 -119 187 -77 303 -130 758 -346 377 -179
359 -173 485 -174 152 -2 182 -13 237 -83 66 -85 70 -94 48 -123 -18 -24 -23
-25 -192 -31 -169 -6 -254 -21 -246 -44 1 -5 11 -9 21 -8 22 3 22 -12 -2 -34
-10 -10 -31 -51 -46 -90 -16 -40 -31 -73 -35 -73 -4 0 -17 11 -30 25 -21 23
-22 30 -16 102 4 43 9 93 13 111 5 31 7 32 23 17 11 -10 20 -12 24 -7 12 20
-96 100 -270 199 -252 142 -541 298 -648 348 -50 23 -129 60 -176 83 -127 60
-177 78 -260 92 -41 7 -83 20 -94 29 -25 22 -56 85 -56 115 0 21 6 26 36 32
20 4 53 2 74 -5 49 -14 50 -14 50 8 0 11 3 27 6 36 6 14 8 14 26 -2 11 -10 33
-36 48 -58z m-700 41 c0 -2 -7 -7 -16 -10 -8 -3 -12 -2 -9 4 6 10 25 14 25 6z
m-120 -58 c0 -61 -73 -135 -105 -108 -21 17 -18 44 6 66 12 10 28 31 35 47 8
15 19 25 24 22 6 -4 10 1 10 11 0 13 3 14 15 4 8 -7 15 -26 15 -42z m130 8 c0
-5 -7 -3 -15 4 -8 7 -12 17 -9 22 7 10 24 -9 24 -26z m180 5 c0 -10 -19 -34
-43 -54 l-42 -34 3 38 c4 40 14 54 47 62 34 8 35 8 35 -12z m220 -1 c0 -11 5
-40 12 -64 16 -62 -9 -187 -59 -286 -81 -162 -257 -279 -420 -280 -61 0 -53
14 16 28 87 18 193 75 242 130 64 72 137 190 160 260 16 49 20 81 17 143 -2
47 1 81 7 83 20 9 25 6 25 -14z m-810 -6 c0 -3 -13 -22 -30 -42 -32 -40 -56
-100 -71 -176 -8 -45 -7 -53 16 -88 25 -37 25 -38 5 -38 -26 0 -67 40 -75 72
-4 17 5 46 28 94 20 38 47 95 61 127 19 43 30 57 45 57 12 0 21 -3 21 -6z
m750 -4 c0 -5 -7 -10 -16 -10 -8 0 -12 5 -9 10 3 6 10 10 16 10 5 0 9 -4 9
-10z m-410 -62 c0 -34 -6 -46 -37 -74 -43 -39 -53 -41 -77 -15 -17 19 -17 21
20 59 50 50 64 68 64 83 0 8 4 8 15 -1 9 -7 15 -29 15 -52z m340 -74 c-50
-148 -200 -305 -366 -381 -30 -14 -56 -23 -58 -22 -30 46 -36 60 -24 63 7 3
31 10 53 16 64 19 128 65 207 149 75 77 138 182 138 227 0 14 13 33 33 48 l32
26 3 -31 c2 -16 -6 -59 -18 -95z m-630 101 c10 -12 7 -21 -19 -51 -28 -31 -72
-113 -97 -179 -7 -17 -9 -15 -12 13 -5 44 21 127 57 185 32 49 50 57 71 32z
m710 -25 c0 -23 -4 -30 -20 -30 -14 0 -20 7 -20 23 0 27 7 37 27 37 8 0 13
-12 13 -30z m-370 -30 c0 -32 -37 -104 -60 -118 -17 -10 -25 -10 -36 -1 -21
18 -18 26 31 73 25 25 45 52 45 61 0 9 5 13 10 10 6 -3 10 -15 10 -25z m-346
-33 c-35 -41 -84 -145 -84 -176 0 -18 -3 -22 -11 -14 -26 26 83 245 112 227 5
-3 -3 -20 -17 -37z m46 -14 c-40 -45 -80 -130 -87 -184 -5 -37 -7 -39 -22 -25
-13 14 -13 22 -3 63 23 85 114 215 135 194 7 -7 -1 -22 -23 -48z m509 27 c-6
-16 -15 -30 -19 -30 -5 0 -17 -3 -27 -7 -11 -4 -6 7 16 30 19 21 36 37 37 37
2 0 -2 -13 -7 -30z m161 -12 c0 -20 -13 -35 -37 -42 -25 -8 -29 3 -13 35 12
21 50 26 50 7z m110 -34 c0 -13 -6 -24 -13 -24 -9 0 -12 10 -9 30 5 35 22 30
22 -6z m-711 -57 c-22 -29 -42 -64 -46 -79 -3 -16 -9 -28 -13 -28 -5 0 -16 -3
-25 -6 -32 -13 3 78 59 153 28 37 33 40 48 26 15 -14 13 -19 -23 -66z m-36 67
c4 -4 -2 -19 -12 -33 -30 -42 -61 -109 -61 -130 0 -11 -9 -25 -20 -31 -11 -6
-20 -7 -20 -2 0 23 41 124 65 161 27 41 36 47 48 35z m824 -107 c-13 -135 -89
-298 -184 -391 -69 -68 -173 -116 -268 -123 -55 -4 -75 -3 -75 6 0 7 -5 9 -12
5 -7 -4 -10 -4 -6 1 4 4 3 14 -3 21 -12 14 0 19 74 29 26 3 83 24 127 46 88
44 175 129 223 218 32 57 67 186 67 243 l0 39 31 -17 c31 -16 32 -16 26 -77z
m-204 63 c-4 -14 -14 -20 -35 -20 -49 0 -23 30 34 39 3 1 4 -8 1 -19z m-275
-65 c-35 -46 -53 -59 -70 -49 -5 4 14 31 43 60 61 62 77 55 27 -11z m402 50
c0 -16 -27 -32 -37 -21 -7 7 16 36 28 36 5 0 9 -7 9 -15z m-683 -32 c-8 -10
-20 -30 -26 -46 -6 -15 -17 -27 -25 -27 -19 0 -12 22 23 72 16 22 30 33 35 28
6 -6 3 -16 -7 -27z m77 18 c17 -19 16 -20 -28 -46 -64 -37 -77 -27 -32 23 21
23 39 42 41 42 1 0 10 -9 19 -19z m723 -3 c-3 -8 -6 -5 -6 6 -1 11 2 17 5 13
3 -3 4 -12 1 -19z m73 -14 c0 -42 -20 -164 -42 -249 -27 -110 -67 -180 -170
-298 -69 -79 -88 -107 -86 -127 5 -39 51 -39 110 0 115 77 222 230 254 366 19
82 14 220 -10 279 -20 48 -21 47 12 43 20 -2 32 -13 47 -43 28 -55 28 -225 1
-305 -51 -153 -144 -272 -299 -385 -64 -47 -87 -80 -72 -104 8 -14 66 -14 101
-1 41 16 175 155 228 238 116 178 127 256 77 519 -10 51 0 47 36 -14 25 -43
28 -58 31 -169 5 -155 -5 -189 -110 -346 -62 -92 -97 -133 -154 -180 -76 -63
-91 -91 -51 -102 53 -14 69 -6 152 75 88 85 128 148 165 259 19 56 22 88 23
225 l1 160 25 -55 c22 -49 25 -69 25 -175 l1 -120 -37 -65 c-20 -36 -68 -109
-107 -163 -39 -53 -75 -105 -80 -116 -14 -26 6 -42 38 -30 40 15 146 133 177
195 29 59 29 60 29 251 0 106 1 193 2 193 2 0 13 -19 25 -42 33 -64 38 -250 9
-345 -26 -88 -80 -177 -137 -231 -26 -23 -44 -45 -41 -48 19 -19 118 85 164
172 32 60 47 120 59 232 3 35 8 61 11 59 12 -12 2 -163 -16 -245 -25 -112 -58
-179 -113 -227 -125 -108 -206 -107 -518 7 -91 33 -187 63 -214 66 -47 7 -50
9 -59 42 -4 19 -15 40 -24 47 -8 6 -12 16 -9 22 4 6 -2 30 -13 53 l-19 43 89
12 c106 14 158 36 220 91 45 40 130 154 164 221 24 47 55 203 55 279 0 59 1
62 25 62 20 0 25 -5 25 -26z m-340 4 c0 -7 -4 -19 -9 -26 -7 -12 -12 -12 -30
-1 -34 22 -30 27 32 38 4 0 7 -5 7 -11z m1015 -262 c292 -159 501 -277 531
-301 l28 -22 -14 -128 -13 -128 35 -32 c19 -18 41 -34 48 -37 10 -3 -13 -84
-94 -327 -140 -423 -203 -570 -300 -706 l-36 -50 0 33 c0 20 6 35 15 38 20 8
55 67 55 93 0 12 7 33 16 46 10 15 14 34 10 49 -7 27 -106 114 -208 182 -38
24 -68 49 -68 55 0 5 -23 71 -50 147 -62 170 -124 289 -205 397 l-62 83 24 72
c37 110 60 286 45 338 -7 23 -18 47 -26 54 -7 7 -16 33 -20 58 -9 55 -41 114
-72 131 -13 7 -24 16 -24 20 0 5 -13 23 -29 41 -15 18 -32 44 -36 57 -4 13
-23 41 -42 62 l-35 39 173 -83 c96 -46 255 -128 354 -181z m-877 233 c-2 -12
-13 -25 -25 -30 -20 -7 -21 -6 -11 22 12 34 41 40 36 8z m132 -9 c0 -16 -4
-30 -10 -30 -5 0 -10 14 -10 30 0 17 5 30 10 30 6 0 10 -13 10 -30z m109 -22
c1 -5 -3 -8 -9 -8 -5 0 -10 12 -9 28 0 24 1 25 9 7 5 -11 9 -23 9 -27z m-1265
-4 c9 -23 8 -24 -19 -24 -23 0 -24 2 -13 20 15 24 24 25 32 4z m860 1 c-4 -8
-11 -12 -16 -9 -6 4 -5 10 3 15 19 12 19 11 13 -6z m-1149 -32 c30 -15 55 -30
55 -33 0 -3 -138 -108 -307 -235 -169 -126 -317 -239 -330 -250 -21 -17 -24
-31 -28 -104 -3 -47 -9 -89 -15 -95 -6 -6 -28 -11 -50 -11 -42 0 -69 23 -70
58 0 9 -1 17 -3 17 -1 0 -47 -11 -101 -25 -54 -14 -105 -25 -112 -25 -25 0
-18 83 9 107 33 31 99 62 149 69 23 4 45 10 48 14 7 9 691 540 696 540 2 0 28
-12 59 -27z m1106 11 c18 -16 17 -18 -13 -60 -17 -24 -41 -53 -54 -65 l-24
-22 -23 21 -23 22 55 60 c30 33 57 60 60 60 2 0 13 -7 22 -16z m-241 -43 c0
-9 -92 -68 -117 -76 -21 -6 -22 -4 -12 24 6 17 27 46 47 66 l36 35 23 -22 c13
-12 23 -24 23 -27z m438 37 c-7 -20 -48 -23 -48 -4 0 11 9 16 26 16 16 0 24
-5 22 -12z m132 -13 c0 -8 -7 -15 -15 -15 -9 0 -12 6 -9 15 4 8 10 15 15 15 5
0 9 -7 9 -15z m130 0 c0 -8 -9 -15 -20 -15 -11 0 -20 7 -20 15 0 8 9 15 20 15
11 0 20 -7 20 -15z m-280 -35 c-9 -17 -14 -18 -30 -8 -24 15 -16 28 16 28 22
0 23 -3 14 -20z m143 -17 c-7 -18 -22 -33 -35 -33 -4 0 -2 11 4 25 13 28 41
35 31 8z m140 -3 c4 -17 0 -20 -24 -20 -31 0 -32 1 -23 24 9 23 41 20 47 -4z
m-854 -30 c-6 -16 -15 -30 -20 -30 -11 0 -11 3 1 34 14 37 32 33 19 -4z m489
-51 c-24 -44 -93 -95 -104 -78 -8 13 105 131 118 123 5 -3 -1 -23 -14 -45z
m218 25 c-3 -9 -6 -22 -6 -29 0 -7 -13 -15 -30 -17 -16 -3 -30 -3 -30 -1 0 10
24 49 34 55 20 14 38 9 32 -8z m154 4 c0 -23 -15 -35 -49 -43 -29 -6 -33 -5
-28 10 4 9 7 23 7 31 0 9 11 14 35 14 21 0 35 -5 35 -12z m-1176 -27 c36 -29
87 -47 103 -38 5 3 23 -6 42 -19 28 -19 31 -24 18 -30 -52 -20 -164 32 -205
94 -20 31 -2 28 42 -7z m66 4 c17 -20 -7 -20 -34 0 -19 15 -19 15 1 15 11 0
26 -7 33 -15z m476 -44 c-9 -15 -65 -43 -76 -39 -5 2 3 22 18 45 26 40 28 41
46 23 10 -10 15 -23 12 -29z m-89 -18 c-20 -31 -32 -39 -68 -45 -69 -12 -66 6
8 44 37 19 71 36 76 36 4 1 -3 -15 -16 -35z m-469 -13 c49 -67 77 -83 156 -89
54 -5 72 -10 74 -22 7 -36 -139 -29 -181 9 -39 34 -102 142 -84 142 3 0 18
-18 35 -40z m1177 13 c-8 -33 -2 -29 -48 -37 -37 -7 -38 -7 -31 21 9 34 20 43
58 43 26 0 28 -2 21 -27z m-805 -125 c122 -185 173 -283 204 -391 14 -49 29
-93 32 -99 16 -25 -60 30 -105 77 -50 51 -159 237 -202 343 -13 31 -38 86 -55
122 -29 59 -31 66 -16 78 33 26 49 12 142 -130z m909 78 c-9 -8 -10 -7 -5 7 3
10 7 28 7 40 2 16 3 14 6 -7 3 -16 -1 -34 -8 -40z m-329 -52 c-18 -27 -42 -59
-54 -72 l-20 -23 -17 22 c-15 21 -14 24 35 90 50 67 51 68 70 50 18 -18 18
-20 -14 -67z m-806 46 c82 -6 107 -30 32 -30 -50 0 -108 20 -121 41 -6 8 -4
10 6 4 7 -5 45 -12 83 -15z m511 -30 c-14 -27 -29 -50 -33 -50 -4 0 -28 -7
-54 -14 l-47 -15 16 35 c11 22 27 37 43 41 14 3 39 17 55 29 44 35 48 30 20
-26z m505 25 c0 -11 -33 -85 -38 -85 -11 0 -52 43 -52 55 0 20 24 35 57 35 18
0 33 -2 33 -5z m120 -24 c0 -18 -31 -95 -51 -128 -33 -53 -43 -25 -13 37 14
30 30 65 35 77 8 22 29 32 29 14z m-600 -15 c0 -3 -4 -8 -10 -11 -5 -3 -10 -1
-10 4 0 6 5 11 10 11 6 0 10 -2 10 -4z m-163 -36 c-8 -21 -18 -30 -34 -30 -13
0 -23 4 -23 8 0 13 23 39 40 45 27 10 28 7 17 -23z m-385 -95 c26 -7 97 -3
127 6 8 2 22 -10 34 -29 26 -43 13 -56 -54 -54 -97 2 -187 65 -226 160 -15 37
-14 36 39 -20 29 -31 65 -60 80 -63z m328 108 c0 -5 -8 -17 -16 -28 l-15 -20
-15 20 c-14 18 -13 21 8 27 33 9 38 9 38 1z m590 -84 c-15 -36 -78 -85 -92
-71 -6 6 8 33 44 81 48 64 53 68 56 45 2 -15 -2 -39 -8 -55z m-783 24 c5 -13
-49 -33 -91 -33 -25 0 -96 31 -96 42 0 9 184 0 187 -9z m580 -36 c-8 -26 -80
-70 -132 -82 l-57 -14 6 31 c7 38 -2 29 73 67 34 17 65 36 69 42 8 14 47 -27
41 -44z m473 -51 c-21 -64 -35 -80 -46 -53 -4 12 57 128 65 121 1 -1 -7 -32
-19 -68z m-670 10 c0 -24 -23 -56 -40 -56 -24 0 -26 22 -4 44 14 15 44 22 44
12z m507 -63 c-19 -26 -46 -58 -60 -71 -22 -20 -25 -21 -37 -7 -12 14 -5 25
50 80 74 75 103 74 47 -2z m-581 35 c-3 -13 -6 -26 -6 -30 0 -5 -7 -8 -15 -8
-17 0 -18 4 -9 38 4 12 13 22 21 22 11 0 14 -6 9 -22z m-407 -91 c51 -21 81
-21 128 -2 34 14 37 14 58 -9 l23 -25 -22 -19 c-66 -60 -161 -57 -214 8 -19
22 -72 127 -72 142 0 6 13 -9 29 -33 20 -32 41 -51 70 -62z m361 87 c0 -9 -5
-14 -12 -12 -18 6 -21 28 -4 28 9 0 16 -7 16 -16z m430 -45 c0 -9 -74 -59 -87
-59 -26 0 -21 20 15 64 l37 46 17 -23 c10 -12 18 -25 18 -28z m457 17 c-7 -43
-36 -106 -48 -106 -23 0 -18 34 13 84 18 31 35 56 37 56 2 0 1 -16 -2 -34z
m-1214 -9 c33 -8 59 -8 87 0 22 6 42 7 45 3 8 -13 -66 -40 -110 -40 -36 0 -51
6 -77 31 -23 21 -27 29 -13 23 11 -4 41 -12 68 -17z m1065 -29 c13 -13 -26
-73 -83 -128 -33 -32 -33 -32 -44 -11 -7 12 -8 21 -3 21 4 0 30 29 57 65 27
36 52 65 55 65 3 0 11 -5 18 -12z m1602 -49 c15 -26 12 -141 -4 -185 -7 -22
-38 -84 -68 -139 -30 -55 -113 -215 -185 -355 -147 -290 -273 -513 -345 -612
-52 -71 -57 -75 -75 -57 -7 7 -2 26 18 63 38 69 134 297 193 457 72 196 94
297 122 569 13 135 27 253 30 263 5 17 19 18 155 16 133 -2 151 -4 159 -20z
m-1850 -64 c-36 -37 -105 -64 -122 -47 -6 6 14 28 58 61 61 46 69 50 83 36 13
-13 11 -19 -19 -50z m325 25 c8 -14 -37 -67 -89 -105 l-41 -30 26 35 c86 118
90 122 104 100z m-922 -61 c20 -33 37 -69 37 -79 0 -32 -41 -130 -54 -130 -16
0 -55 29 -39 30 7 0 20 14 28 30 14 27 14 31 0 36 -8 4 -32 -1 -53 -9 -42 -16
-67 -11 -97 23 l-20 22 40 -21 c22 -11 46 -21 53 -21 18 0 62 46 62 66 0 13
-7 15 -37 10 -127 -20 -120 -21 -153 12 -33 34 -39 56 -12 48 51 -15 73 -16
110 -7 22 6 51 20 64 31 12 11 25 19 28 19 3 0 22 -27 43 -60z m697 -3 c0 -2
3 -11 6 -20 7 -19 -45 -47 -75 -39 -21 5 -21 7 11 34 29 25 58 37 58 25z
m-2315 -26 c10 -17 -14 -49 -114 -154 -132 -139 -171 -188 -244 -306 -34 -57
-78 -115 -97 -129 l-34 -26 28 50 c16 28 80 145 143 260 163 297 161 295 203
296 19 0 44 4 55 9 28 12 53 12 60 0z m-5 -107 c-23 -43 -60 -103 -83 -133
-50 -67 -177 -201 -231 -243 -36 -29 -38 -29 -26 -6 40 76 128 188 241 307 43
45 91 98 106 117 15 19 30 35 31 35 2 0 -15 -35 -38 -77z m120 53 c0 -27 -110
-195 -219 -332 -147 -187 -223 -290 -261 -358 l-30 -53 -76 20 c-63 16 -79 17
-99 7 -13 -7 -29 -10 -36 -8 -7 2 23 33 67 68 138 112 343 300 404 371 71 83
127 165 168 245 28 55 34 61 56 57 15 -3 26 -11 26 -17z m1428 12 c-3 -7 -20
-14 -39 -16 -50 -5 -19 19 34 27 5 0 7 -5 5 -11z m1127 -55 c-15 -61 -111
-137 -141 -112 -20 17 -17 25 14 38 15 6 50 32 77 56 28 24 52 44 54 45 2 0 0
-12 -4 -27z m1005 -40 c-4 -38 -20 -111 -37 -163 -18 -52 -54 -176 -82 -275
-28 -99 -64 -216 -81 -260 -26 -67 -71 -219 -85 -287 -2 -10 -12 -31 -22 -48
-17 -29 -19 -30 -95 -30 l-78 0 54 80 c99 145 156 277 299 705 83 249 119 345
131 345 1 0 -1 -30 -4 -67z m-2106 22 c-7 -16 -24 -21 -24 -6 0 8 7 13 27 20
1 1 0 -6 -3 -14z m1154 -17 c34 -34 1 -118 -58 -148 -48 -25 -69 -25 -86 -2
-17 22 -18 42 -1 42 7 0 30 20 51 45 20 25 41 43 46 40 5 -3 11 4 15 15 7 23
16 25 33 8z m70 -103 c17 -27 19 -41 12 -66 -13 -43 -28 -59 -78 -80 -59 -25
-67 -24 -90 13 l-20 32 35 25 c20 14 49 38 65 54 16 15 34 27 39 27 5 0 9 7 9
15 0 23 6 18 28 -20z m-1907 -66 c60 -51 108 -95 107 -98 -2 -4 -27 -48 -56
-99 -52 -89 -55 -92 -89 -92 -20 0 -44 -7 -53 -15 -10 -9 -54 -33 -98 -55
l-81 -39 -26 31 c-42 50 -60 94 -56 134 0 6 39 49 86 95 47 45 85 89 85 97 0
12 -3 12 -15 2 -12 -10 -18 -6 -33 19 -27 44 -22 71 19 93 65 35 88 27 210
-73z m2784 -55 c-18 -107 -77 -294 -158 -498 -60 -151 -75 -155 -19 -5 21 57
60 181 87 274 66 236 97 336 102 331 2 -2 -3 -48 -12 -102z m-3031 15 c16 -27
16 -27 -40 -81 -57 -54 -83 -72 -70 -47 4 8 -4 1 -18 -14 -19 -20 -26 -39 -26
-67 0 -21 -5 -42 -12 -46 -18 -11 -3 137 20 188 11 24 37 64 58 90 l39 48 16
-22 c9 -12 24 -34 33 -49z m2225 -25 c21 -41 22 -49 10 -71 -19 -35 -75 -71
-125 -79 -39 -6 -40 -5 -58 35 -22 48 -16 59 48 89 23 11 53 32 67 46 13 14
27 26 30 26 3 0 16 -21 28 -46z m-1774 -67 c25 -78 34 -93 70 -113 28 -15 36
-16 49 -5 19 16 21 69 5 124 -16 59 -4 68 20 14 29 -68 28 -121 -5 -153 -19
-20 -31 -24 -52 -19 -47 11 -90 62 -102 121 -6 30 -16 56 -21 59 -5 4 -9 15
-9 27 0 35 27 2 45 -55z m846 6 c11 -13 11 -17 2 -20 -34 -12 12 -97 105 -196
56 -59 56 -60 12 -25 -59 48 -142 148 -156 189 -20 57 5 91 37 52z m989 -103
c0 -34 -36 -65 -92 -81 -60 -16 -83 -9 -83 24 1 15 -5 27 -12 27 -27 0 -12 19
25 30 47 16 132 69 132 84 1 24 30 -58 30 -84z m-1573 51 c-73 -84 -13 -142
69 -67 21 19 43 32 51 29 10 -4 11 -9 3 -18 -8 -9 -5 -14 10 -18 24 -6 27 -32
4 -41 -23 -9 -29 0 -14 19 19 23 -4 19 -50 -10 -53 -33 -93 -33 -120 2 -24 31
-21 60 11 104 12 18 25 26 35 22 13 -5 13 -8 1 -22z m423 4 c13 -14 19 -25 13
-25 -5 0 -20 11 -33 25 -13 14 -19 25 -13 25 5 0 20 -11 33 -25z m286 -91 c19
-29 34 -59 34 -66 -1 -7 -9 3 -20 22 -10 19 -32 48 -49 64 -17 16 -28 33 -25
38 9 14 23 -1 60 -58z m-158 -18 c79 -54 166 -130 122 -106 -50 26 -167 110
-196 141 -33 36 -27 33 74 -35z m1059 -29 c20 -66 -20 -106 -116 -114 l-59 -6
-11 38 c-9 32 -8 40 7 51 9 8 24 14 32 14 8 0 40 12 70 25 30 13 58 24 61 25
3 0 10 -15 16 -33z m-1973 -12 c77 -10 120 -40 124 -86 3 -33 -3 -42 -70 -108
-48 -47 -65 -69 -49 -63 34 12 69 3 86 -21 36 -52 1 -110 -63 -105 -30 2 -40
9 -54 36 l-16 33 -7 -30 c-15 -68 66 -157 120 -133 34 16 53 58 78 175 24 108
30 116 83 103 30 -8 49 -44 65 -126 13 -69 33 -96 95 -125 85 -40 169 44 142
143 -15 55 -42 87 -103 122 -85 49 -99 91 -37 117 35 15 43 14 130 -7 92 -22
92 -22 130 -3 27 15 38 27 40 48 3 21 6 25 12 15 7 -12 12 -11 29 5 29 25 36
14 10 -18 -24 -32 -19 -43 22 -52 22 -5 36 -2 50 11 10 9 19 12 19 7 0 -33
-64 -46 -102 -21 -20 13 -25 13 -56 -9 -40 -27 -75 -29 -152 -8 -66 18 -104
19 -131 4 -20 -10 -20 -11 -2 -31 10 -11 34 -28 53 -38 95 -49 145 -163 105
-239 -43 -84 -119 -103 -200 -49 -51 34 -66 60 -84 149 -12 58 -40 95 -64 86
-8 -3 -21 -42 -31 -94 -22 -105 -50 -167 -83 -182 -33 -15 -48 -14 -92 9 -40
20 -71 75 -71 123 1 44 42 113 111 183 40 42 69 80 69 93 0 27 -32 47 -95 61
-90 19 -95 20 -95 31 0 6 6 9 13 6 8 -3 39 -8 71 -12z m291 -20 c31 -30 31
-48 3 -75 -30 -27 -62 -25 -87 6 -26 33 -26 49 -1 74 27 27 56 25 85 -5z
m-725 -19 c11 -19 26 -37 33 -39 7 -2 0 -10 -15 -17 -16 -7 -28 -17 -28 -22 0
-17 33 -7 123 38 80 41 185 79 194 70 2 -1 -8 -30 -21 -64 -13 -34 -27 -75
-31 -91 -3 -16 -15 -37 -26 -47 -26 -24 -59 -78 -64 -106 -19 -107 -101 -428
-159 -628 -93 -317 -165 -600 -195 -770 -45 -254 -73 -512 -83 -770 -12 -280
-9 -330 17 -330 10 0 15 -11 15 -35 0 -29 -5 -37 -26 -45 -57 -22 -172 2 -232
48 l-22 17 19 58 c11 32 27 97 36 145 9 48 25 126 35 173 11 47 26 142 35 210
30 238 87 555 130 724 24 94 55 244 70 335 15 91 47 260 71 375 23 116 54 266
68 335 14 69 33 157 42 196 10 39 14 82 10 97 -5 23 -11 27 -45 27 -46 0 -63
17 -65 67 -1 31 4 40 33 60 45 31 56 29 81 -11z m1776 -17 c19 -22 19 -22 -3
-10 -24 12 -39 31 -25 31 5 0 17 -10 28 -21z m-69 -1 c-9 -7 -24 -22 -32 -33
-14 -18 -14 -17 0 13 8 17 23 32 32 32 16 0 16 -1 0 -12z m733 -33 c13 -35 3
-53 -43 -77 -66 -33 -156 -17 -157 28 0 7 27 17 61 23 34 6 75 19 93 30 17 11
32 20 34 20 1 1 7 -10 12 -24z m-640 -17 c-1 -7 -8 -24 -16 -38 l-15 -25 5 25
c3 14 6 31 6 38 0 6 5 12 10 12 6 0 10 -6 10 -12z m125 -28 c21 -23 17 -25
-19 -7 -14 8 -23 17 -19 20 10 11 19 8 38 -13z m-242 -20 c4 -17 3 -19 -9 -9
-8 6 -14 18 -14 26 0 20 16 8 23 -17z m164 -4 c-25 -28 -34 -27 -17 3 6 12 17
21 25 21 9 0 7 -7 -8 -24z m613 -16 c0 -14 -7 -20 -22 -20 -20 0 -21 1 -3 20
10 11 20 20 22 20 1 0 3 -9 3 -20z m-3522 -25 c-6 -14 -15 -25 -19 -25 -4 0
-14 -3 -23 -6 -11 -4 -16 0 -16 13 0 26 19 43 47 43 20 0 22 -2 11 -25z m1036
10 c3 -9 -3 -55 -14 -103 -76 -340 -142 -665 -180 -887 -30 -180 -35 -202 -84
-389 -26 -97 -96 -500 -116 -666 -26 -219 -101 -542 -163 -704 -15 -40 -86
-146 -98 -146 -16 0 -10 95 12 166 11 38 34 101 51 139 79 182 118 353 264
1160 13 77 29 160 33 185 5 25 30 144 55 265 69 320 115 573 121 668 3 45 13
124 21 174 13 76 21 98 44 123 31 34 45 37 54 15z m1796 1 c0 -8 -4 -18 -10
-21 -5 -3 -10 3 -10 14 0 12 5 21 10 21 6 0 10 -6 10 -14z m182 -32 c-7 -38
-18 -28 -14 12 3 21 8 31 12 24 4 -6 5 -22 2 -36z m-3104 10 c3 -18 -1 -21
-22 -17 -15 3 -26 11 -26 17 0 33 43 33 48 0z m162 1 c6 -8 9 -23 5 -35 -5
-16 -12 -19 -33 -14 -15 4 -28 7 -29 8 -1 1 1 13 4 29 6 30 33 37 53 12z
m2795 -4 c-3 -6 -14 -11 -23 -11 -13 0 -13 2 4 14 21 15 30 14 19 -3z m438
-24 c17 5 20 3 10 -7 -16 -17 -60 -5 -74 22 l-12 21 27 -20 c16 -13 35 -19 49
-16z m-3463 -2 c0 -9 -9 -15 -22 -15 -22 1 -23 1 -4 15 25 19 26 19 26 0z m60
-24 c0 -5 -7 -12 -16 -15 -22 -9 -24 -8 -24 9 0 8 9 15 20 15 11 0 20 -4 20
-9z m75 0 c-18 -7 -55 -4 -55 5 0 2 17 4 38 3 28 0 32 -2 17 -8z m138 -10 c3
-14 0 -17 -14 -14 -15 4 -17 8 -8 19 15 18 16 18 22 -5z m2572 7 c11 -1 31 2
44 6 18 6 22 5 19 -5 -4 -11 -24 -13 -81 -11 -67 3 -77 1 -90 -18 -11 -16 -13
-30 -6 -53 11 -37 17 -44 50 -52 22 -6 33 0 60 29 32 35 56 42 87 23 20 -13
14 -32 -22 -80 -46 -61 -52 -81 -27 -106 25 -25 44 -26 66 -5 12 13 14 28 9
74 -12 110 39 139 81 45 24 -56 59 -83 90 -71 9 3 25 25 35 48 12 27 20 35 20
23 0 -11 -9 -35 -20 -52 -15 -25 -27 -33 -48 -33 -40 0 -66 23 -91 80 -12 27
-26 50 -31 50 -18 0 -28 -36 -23 -82 7 -64 -2 -96 -31 -104 -24 -6 -65 10 -78
30 -16 23 -7 56 27 96 19 23 35 50 35 61 0 30 -42 24 -75 -11 -43 -45 -94 -38
-123 17 -31 57 10 119 72 108 17 -4 40 -7 51 -7z m302 -5 c-9 -9 -20 -13 -24
-9 -4 4 -1 11 7 16 25 16 35 11 17 -7z m-2953 -35 c7 -12 2 -32 -18 -77 -15
-34 -33 -90 -39 -124 l-12 -62 -36 -1 -36 -1 17 46 c10 25 23 79 30 120 17
100 62 149 94 99z m2797 6 c11 -14 10 -18 -6 -30 -10 -8 -22 -14 -26 -14 -14
0 -29 28 -23 44 8 21 38 21 55 0z m-3038 -1 c4 -3 3 -11 -2 -17 -4 -6 -20 -47
-35 -91 -15 -44 -37 -99 -50 -123 l-22 -43 -24 19 -23 19 26 34 c14 19 40 68
58 109 40 95 53 112 72 93z m133 -25 c-3 -13 -12 -60 -21 -106 -9 -46 -25
-102 -37 -126 -17 -36 -24 -42 -44 -38 -13 2 -24 6 -24 7 0 2 14 32 31 68 17
38 33 90 36 124 6 58 24 93 50 93 9 0 12 -8 9 -22z m2975 -7 c15 -6 18 -10 8
-10 -9 -1 -25 7 -36 17 -10 9 -14 14 -8 10 6 -4 22 -12 36 -17z m-3055 -13
c-3 -18 -7 -52 -10 -75 -4 -23 -20 -71 -36 -106 -17 -36 -30 -71 -30 -78 0 -8
-6 -7 -18 4 -10 10 -24 17 -30 17 -8 0 -3 18 12 48 13 26 36 83 50 127 24 72
37 94 59 95 4 0 6 -15 3 -32z m258 11 c21 -10 46 -53 46 -80 0 -10 -60 -30
-71 -23 -9 5 -13 114 -4 114 2 0 15 -5 29 -11z m72 -199 c1 -30 5 -69 9 -86 5
-21 3 -34 -6 -39 -34 -22 -98 135 -69 170 8 9 25 15 39 13 24 -3 26 -7 27 -58z
m1199 -40 c4 -7 -3 -10 -19 -8 -35 5 -45 18 -13 18 14 0 29 -5 32 -10z m1421
-26 c30 -29 27 -67 -8 -96 -64 -55 -148 42 -88 102 27 27 66 25 96 -6z m-3147
-8 c9 -10 9 -20 0 -40 -13 -27 -18 -30 -42 -20 -12 4 -13 12 -4 40 11 36 27
43 46 20z m4041 -31 c0 -17 -23 -25 -41 -14 -11 7 -10 11 6 23 22 16 35 12 35
-9z m-3971 3 c17 -10 18 -15 5 -50 -22 -63 -25 -66 -56 -54 l-27 12 24 52 c26
57 27 57 54 40z m230 3 c12 -8 12 -15 -1 -53 -9 -23 -19 -55 -22 -70 -5 -23
-10 -26 -24 -19 -9 5 -24 12 -33 14 -14 5 -15 13 -7 59 5 29 11 59 13 66 5 14
53 16 74 3z m1451 -42 c-18 -42 -25 -28 -9 16 8 20 15 31 17 25 2 -6 -2 -24
-8 -41z m2399 27 c-21 -44 -100 -37 -83 7 4 12 18 17 50 17 42 0 43 -1 33 -24z
m91 -23 c0 -20 -5 -23 -40 -23 -33 0 -38 3 -33 18 3 9 13 25 21 34 11 14 18
15 33 5 10 -6 19 -22 19 -34z m-4067 25 c5 -13 -43 -108 -54 -108 -4 0 -12 7
-19 15 -20 25 14 105 45 105 13 0 25 -6 28 -12z m1667 -13 c0 -2 -10 -10 -22
-16 -21 -11 -22 -11 -9 4 13 16 31 23 31 12z m79 -74 l-1 -26 -7 26 c-5 14
-14 36 -20 50 l-12 24 20 -24 c12 -13 21 -35 20 -50z m303 47 c28 -23 29 -48
3 -73 -33 -34 -86 -15 -84 29 0 18 2 18 10 -5 18 -47 79 -42 79 6 0 32 -32 50
-62 35 -22 -11 -22 -10 -4 4 24 19 37 20 58 4z m-442 -43 c-21 -25 -32 -17
-13 9 10 13 20 20 21 15 2 -5 -2 -16 -8 -24z m2184 -7 c-8 -50 -103 -254 -146
-314 -17 -24 -41 -45 -54 -48 -13 -4 -33 -19 -44 -34 -17 -23 -27 -27 -56 -24
-34 4 -34 5 -18 23 10 11 35 24 56 31 21 6 38 15 38 20 0 6 20 33 44 61 67 81
146 212 153 254 6 38 19 73 28 73 3 0 2 -19 -1 -42z m80 36 c14 -5 14 -9 1
-34 -8 -16 -15 -42 -15 -58 0 -40 -23 -88 -99 -210 -41 -65 -70 -102 -81 -102
-10 0 -35 -16 -56 -35 -40 -37 -49 -41 -59 -25 -3 5 12 20 33 34 21 13 51 39
67 58 42 49 155 285 155 322 0 45 20 63 54 50z m-1834 -25 c0 -6 -4 -7 -10 -4
-5 3 -10 11 -10 16 0 6 5 7 10 4 6 -3 10 -11 10 -16z m-2250 -13 c0 -13 -7
-29 -15 -36 -13 -11 -15 -7 -15 24 0 25 4 36 15 36 9 0 15 -9 15 -24z m4164
-8 c-4 -13 -15 -50 -24 -84 -15 -53 -66 -147 -158 -286 -17 -26 -32 -38 -48
-38 -30 0 -40 17 -14 25 11 3 20 11 20 16 0 6 18 37 41 70 64 94 119 209 119
248 0 39 24 71 52 71 16 0 18 -4 12 -22z m113 -15 c14 -18 -5 -73 -36 -108
-39 -42 -131 -257 -131 -304 0 -37 -8 -43 -31 -23 -12 10 -32 15 -54 13 -42
-3 -44 7 -9 63 124 199 143 235 154 289 14 68 40 101 73 92 12 -4 27 -14 34
-22z m-497 -2 c-14 -4 -30 -18 -37 -31 -7 -14 -13 -19 -13 -11 0 22 31 51 54
50 18 -1 18 -2 -4 -8z m-913 -8 c-3 -5 -1 -18 4 -30 6 -17 16 -23 37 -23 31 0
47 13 55 45 5 20 5 20 6 -1 3 -51 -58 -76 -95 -39 -25 25 -32 55 -13 55 5 0 8
-3 6 -7z m1057 -30 c-3 -16 -18 -48 -31 -72 -24 -41 -27 -43 -61 -37 -20 3
-42 12 -49 19 -12 12 -6 18 39 40 30 15 65 38 78 52 30 32 32 31 24 -2z
m-3891 -20 c-19 -49 -41 -73 -65 -73 -24 0 -23 1 13 60 19 31 38 50 49 50 18
0 18 -2 3 -37z m107 22 c26 -31 -101 -195 -150 -195 -28 0 -25 21 11 66 18 22
42 63 55 92 19 42 28 52 48 52 13 0 29 -7 36 -15z m1795 5 c-3 -5 -11 -10 -16
-10 -6 0 -7 5 -4 10 3 6 11 10 16 10 6 0 7 -4 4 -10z m-1655 -25 c9 -11 8 -24
-4 -62 -9 -26 -22 -55 -29 -64 -17 -21 -89 -69 -104 -69 -21 0 -15 25 12 50
24 22 47 74 59 133 5 20 12 27 30 27 13 0 29 -7 36 -15z m1600 6 c0 -5 -9 -7
-20 -4 -11 3 -20 7 -20 9 0 2 9 4 20 4 11 0 20 -4 20 -9z m1720 -21 c-8 -5
-22 -10 -30 -10 -13 0 -13 1 0 10 8 5 22 10 30 10 13 0 13 -1 0 -10z m55 -10
c3 -5 2 -10 -4 -10 -5 0 -13 5 -16 10 -3 6 -2 10 4 10 5 0 13 -4 16 -10z
m-1361 -29 c27 -27 14 -37 -18 -15 -21 13 -38 15 -83 10 -61 -7 -63 -5 -18 19
37 20 91 13 119 -14z m1233 -23 c-3 -8 -6 -5 -6 6 -1 11 2 17 5 13 3 -3 4 -12
1 -19z m0 -40 c-3 -8 -6 -5 -6 6 -1 11 2 17 5 13 3 -3 4 -12 1 -19z m250 3
c10 -10 25 -20 33 -23 36 -11 -177 -73 -218 -63 -32 8 -25 37 13 48 17 5 53
20 80 32 62 29 70 30 92 6z m-1021 -154 c49 -34 113 -77 142 -96 l54 -34 -79
-27 c-43 -14 -93 -34 -112 -44 -42 -22 -80 -18 -211 23 l-96 30 -10 53 c-6 29
-18 70 -27 90 l-17 37 43 5 c133 16 194 23 208 25 9 0 56 -27 105 -62z m-666
28 c0 -13 -25 -55 -32 -55 -18 0 -68 31 -77 48 -8 15 -4 17 50 14 32 -2 59 -5
59 -7z m102 -40 c-4 -46 -16 -54 -56 -39 -34 13 -3 84 37 84 20 0 22 -4 19
-45z m167 8 c6 -21 18 -48 26 -61 9 -12 13 -27 9 -33 -8 -14 -67 -3 -116 22
-34 17 -38 23 -32 47 14 62 13 62 59 62 43 0 45 -1 54 -37z m1549 -99 c31 -22
28 -46 -18 -123 -22 -37 -40 -74 -40 -82 0 -26 -11 -29 -38 -11 -18 12 -24 13
-18 3 5 -7 -5 -3 -22 9 l-31 23 29 41 c16 23 34 61 39 86 15 66 53 87 99 54z
m-200 -13 c15 -9 3 -39 -47 -116 -14 -22 -28 -50 -31 -61 -5 -21 -6 -21 -42
-7 l-38 15 30 43 c17 24 30 46 30 50 0 3 11 23 25 45 25 39 46 48 73 31z m72
-30 c0 -29 -78 -158 -104 -173 -32 -18 -25 16 18 85 25 41 46 79 46 85 0 9 25
30 38 32 1 0 2 -13 2 -29z m263 9 c14 -13 -43 -201 -67 -221 -23 -20 -44 -23
-65 -10 -12 8 -11 15 3 51 9 24 24 72 32 109 9 36 20 71 26 78 10 13 54 8 71
-7z m-956 -77 c34 -21 65 -44 68 -52 3 -7 -6 -29 -20 -47 -23 -30 -31 -34 -73
-34 -45 0 -49 3 -109 67 -35 37 -63 71 -63 75 0 4 15 12 33 17 63 18 98 13
164 -26z m804 -90 c-12 -20 -14 -14 -5 12 4 9 9 14 11 11 3 -2 0 -13 -6 -23z
m-330 -33 c28 -15 24 -35 -18 -82 -60 -66 -110 -98 -155 -98 l-40 0 88 95 c48
52 91 95 96 95 5 0 18 -5 29 -10z m228 -24 c9 -11 9 -20 2 -35 -6 -11 -11 -39
-11 -63 0 -50 -37 -132 -75 -168 l-25 -23 0 49 c0 44 24 210 35 242 6 17 60
15 74 -2z m-109 -28 c-8 -30 -27 -170 -33 -242 -1 -22 -9 -32 -30 -39 -16 -5
-30 -7 -33 -5 -2 3 5 40 16 83 11 43 20 94 20 114 0 45 34 121 54 121 11 0 13
-7 6 -32z m277 -18 c25 0 7 -104 -33 -189 -48 -104 -59 -88 -49 74 l7 127 30
-6 c17 -3 37 -6 45 -6z m-3707 -1235 c29 -19 56 -35 60 -35 4 0 25 -7 46 -16
33 -14 36 -17 20 -26 -15 -8 -16 -12 -5 -19 26 -16 -8 -9 -67 15 -32 13 -78
27 -102 31 -43 7 -64 28 -54 55 13 39 38 38 102 -5z m-3 -90 c57 -17 69 -44
19 -43 -36 0 -153 35 -161 49 -9 14 86 11 142 -6z m-74 -50 c28 -7 31 -13 21
-38 -5 -14 -10 -14 -46 -1 -22 8 -54 14 -70 14 -26 0 -88 35 -88 50 0 6 135
-12 183 -25z m384 7 c24 -10 43 -20 43 -24 0 -18 -25 -17 -92 2 -105 31 -107
32 -73 40 36 8 65 4 122 -18z m493 -58 c30 -10 57 -21 60 -25 3 -4 16 -9 29
-10 18 -3 27 -15 39 -51 36 -113 -36 -147 -195 -90 -61 22 -88 27 -125 22
l-47 -6 25 33 c32 42 74 132 74 159 0 33 10 35 49 9 20 -13 61 -31 91 -41z
m-649 42 c24 -8 70 -22 102 -31 64 -18 80 -42 20 -30 -61 11 -204 61 -196 68
9 10 24 9 74 -7z m359 -1 c0 -19 -11 -19 -36 0 -18 14 -18 14 9 15 17 0 27 -5
27 -15z m-355 -52 c61 -20 116 -37 123 -39 6 -2 12 -13 12 -24 0 -19 -2 -20
-14 -7 -9 8 -45 16 -93 20 -118 8 -225 35 -221 55 4 20 48 44 68 36 8 -3 65
-21 125 -41z m305 2 c5 -3 10 -18 10 -33 0 -26 -2 -27 -52 -27 -29 0 -61 -4
-70 -9 -31 -14 -21 33 12 64 26 24 35 27 60 20 16 -5 34 -11 40 -15z m-611 6
c22 -6 22 -7 7 -20 -15 -13 -23 -12 -59 7 l-42 21 35 -1 c19 0 46 -3 59 -7z
m-96 -27 c26 -9 47 -22 47 -30 0 -8 4 -14 9 -14 5 0 5 -15 -1 -34 -13 -42 -36
-39 -96 16 -23 21 -53 44 -67 50 -19 8 -22 14 -13 20 20 12 70 9 121 -8z m252
-30 c28 -8 96 -19 152 -25 109 -12 134 -28 96 -59 -11 -8 -22 -24 -26 -35 -8
-18 -9 -18 -20 5 -12 25 -15 26 -242 92 -38 11 -72 22 -75 25 -10 9 26 22 45
16 11 -3 43 -12 70 -19z m0 -62 c55 -17 119 -36 143 -42 39 -10 42 -13 42 -45
0 -19 -5 -46 -12 -60 -15 -33 -36 -29 -128 25 -63 37 -173 80 -205 80 -20 0
-20 39 0 67 12 18 20 20 38 14 12 -5 67 -23 122 -39z m406 -6 c-15 -17 -20
-43 -28 -128 -4 -47 -11 -73 -24 -84 -18 -16 -20 -16 -43 9 -14 15 -34 27 -46
27 -18 0 -20 6 -20 63 0 59 2 63 33 83 55 37 71 43 106 44 27 0 31 -2 22 -14z
m135 -69 c65 25 108 24 175 -4 47 -19 83 -27 137 -28 40 -1 74 -4 75 -6 2 -2
11 -34 21 -70 16 -61 16 -69 2 -103 -19 -46 -136 -169 -181 -190 -79 -38 -125
-14 -222 116 -39 52 -89 110 -112 129 l-40 34 8 62 c5 45 14 70 31 88 l24 25
26 -32 c25 -29 29 -31 56 -21z"/>
<path d="M4368 11113 c-13 -53 -57 -155 -149 -346 -197 -408 -466 -1032 -456
-1061 2 -5 36 73 76 175 98 246 244 573 395 887 68 141 128 273 134 292 19 60
30 120 23 124 -3 2 -14 -29 -23 -71z"/>
<path d="M4344 10163 c-7 -10 -87 -110 -179 -223 -281 -346 -328 -430 -399
-716 -51 -202 -98 -312 -266 -622 -45 -84 -80 -155 -77 -158 6 -6 149 255 224
409 56 114 100 236 133 369 73 291 115 365 435 760 78 95 144 179 149 186 11
19 -8 14 -20 -5z"/>
<path d="M5256 9903 c-10 -29 -47 -101 -83 -160 -151 -249 -203 -337 -203
-346 0 -15 1 -14 106 158 53 88 112 184 130 214 38 61 77 158 71 175 -2 6 -12
-13 -21 -41z"/>
<path d="M4780 9823 c-12 -27 -39 -92 -61 -146 -50 -125 -114 -253 -197 -392
-70 -119 -106 -195 -93 -195 5 0 14 14 20 31 6 17 43 85 83 152 75 127 166
312 213 432 15 39 33 81 41 95 13 23 13 22 8 -20 -5 -39 -16 -86 -41 -175 -3
-13 -2 -17 5 -10 25 25 70 275 49 275 -3 0 -16 -21 -27 -47z"/>
<path d="M5450 9594 c-171 -172 -368 -345 -573 -503 -184 -142 -307 -270 -307
-320 0 -9 9 3 21 26 27 55 164 186 314 300 186 141 395 326 569 502 88 88 157
163 155 166 -3 2 -83 -75 -179 -171z"/>
<path d="M4331 9698 c-38 -127 -160 -391 -235 -508 -87 -135 -125 -213 -136
-284 -6 -41 -7 -73 -2 -78 6 -6 11 19 14 60 4 58 13 82 53 158 27 49 65 114
85 144 85 127 270 550 241 550 -4 0 -13 -19 -20 -42z"/>
<path d="M5818 9529 c-7 -11 -57 -54 -110 -95 -164 -126 -308 -279 -592 -629
-76 -93 -155 -187 -174 -207 -20 -21 -33 -40 -31 -43 9 -8 68 60 239 270 284
350 401 472 618 639 27 22 55 50 61 63 13 29 6 30 -11 2z"/>
<path d="M3328 8973 c-88 -117 -221 -370 -233 -443 -4 -25 1 -18 20 29 42 107
142 292 205 379 62 87 69 115 8 35z"/>
<path d="M4250 8843 c-36 -108 -103 -229 -196 -353 -104 -139 -122 -160 -284
-325 -141 -145 -170 -180 -169 -204 0 -10 4 -8 10 7 5 13 80 96 166 185 282
290 416 478 483 680 12 38 20 71 17 73 -3 3 -15 -25 -27 -63z"/>
<path d="M3861 8555 c-17 -81 -42 -116 -161 -226 -104 -96 -122 -120 -135
-176 -10 -50 9 -39 23 12 12 45 32 69 156 184 32 30 71 72 87 94 27 37 55 134
46 160 -2 6 -10 -15 -16 -48z"/>
<path d="M4269 8397 c-111 -138 -290 -313 -419 -409 -63 -47 -123 -94 -132
-105 -22 -24 -51 -93 -39 -93 5 0 11 11 15 23 9 39 45 76 142 148 52 38 132
103 179 145 111 98 346 366 333 379 -2 3 -38 -37 -79 -88z"/>
<path d="M4629 8413 c-78 -115 -322 -411 -464 -562 -33 -35 -106 -100 -163
-143 -57 -44 -101 -83 -98 -85 5 -6 39 19 164 120 131 106 622 690 599 713 -3
3 -20 -16 -38 -43z"/>
<path d="M3137 8405 c-19 -86 -48 -286 -49 -335 -1 -51 16 -109 29 -97 2 3 0
14 -6 25 -17 32 -13 106 15 261 14 79 23 151 21 160 -2 10 -6 4 -10 -14z"/>
<path d="M4813 8403 c-9 -16 -41 -54 -72 -85 -61 -64 -60 -80 2 -20 l38 37
-35 -79 c-35 -77 -80 -154 -136 -231 -26 -36 -50 -90 -31 -69 35 39 142 215
182 301 27 57 58 117 69 133 22 31 25 40 10 40 -5 0 -17 -12 -27 -27z"/>
<path d="M2797 8333 c2 -27 5 -58 7 -70 2 -13 -1 -23 -5 -23 -5 0 -9 -7 -9
-16 0 -8 5 -12 10 -9 6 4 1 -17 -11 -47 -12 -29 -31 -109 -43 -178 -20 -114
-23 -121 -29 -83 -4 23 -4 49 -1 57 4 9 1 16 -6 16 -10 0 -11 -17 -6 -67 4
-38 8 -81 9 -97 1 -16 8 -31 15 -34 12 -4 12 0 1 19 -10 21 -10 22 2 12 11 -9
19 -7 38 8 21 17 22 23 13 44 -12 27 -5 88 23 195 27 101 24 320 -4 320 -5 0
-7 -21 -4 -47z"/>
<path d="M2997 8313 c18 -68 12 -114 -27 -230 -29 -84 -30 -117 -4 -127 17 -7
18 -1 2 24 -10 16 -7 34 16 101 15 45 30 103 33 129 6 49 -13 160 -27 160 -4
0 -1 -26 7 -57z"/>
<path d="M3254 8288 c-24 -72 -24 -256 0 -312 21 -50 30 -43 11 9 -21 60 -19
237 4 303 10 28 14 52 10 52 -4 0 -15 -24 -25 -52z"/>
<path d="M3027 8143 c-24 -23 5 -173 33 -173 5 0 0 16 -12 35 -16 28 -19 47
-16 90 3 30 4 55 3 55 -1 0 -5 -3 -8 -7z"/>
<path d="M3161 8117 c-19 -50 -23 -97 -11 -127 7 -17 16 -30 21 -30 4 0 1 16
-7 36 -13 32 -13 41 0 87 16 54 14 78 -3 34z"/>
<path d="M4995 8072 c-73 -55 -270 -178 -420 -262 -147 -82 -236 -143 -280
-191 l-30 -33 40 32 c75 61 152 111 281 183 71 39 191 112 268 161 76 49 141
87 143 84 3 -2 -22 -45 -55 -95 -33 -50 -56 -91 -52 -91 8 0 117 160 127 188
5 11 3 13 -8 7 -8 -5 -11 -5 -6 1 5 5 12 9 16 9 9 0 41 31 41 39 0 13 -17 4
-65 -32z"/>
<path d="M2901 8008 c-1 -29 18 -78 30 -78 7 0 -3 37 -22 85 -7 18 -8 17 -8
-7z"/>
<path d="M3190 8022 c0 -18 23 -62 32 -62 5 0 1 15 -8 33 -20 39 -24 44 -24
29z"/>
<path d="M4034 7902 c-136 -131 -189 -193 -182 -213 2 -6 17 8 33 31 16 23 92
103 169 176 76 74 133 134 125 134 -8 0 -73 -57 -145 -128z"/>
<path d="M2990 8014 c0 -14 27 -50 33 -44 3 3 -3 16 -13 30 -11 14 -20 20 -20
14z"/>
<path d="M3295 7985 c3 -16 13 -37 21 -45 22 -22 17 4 -7 42 l-21 33 7 -30z"/>
<path d="M2880 7920 c0 -23 29 -77 55 -100 24 -23 35 -25 113 -25 73 0 99 5
159 29 44 18 79 26 90 21 14 -5 5 -11 -37 -25 -30 -9 -80 -29 -110 -44 -67
-32 -129 -34 -203 -6 -58 22 -99 58 -118 105 -10 26 -13 27 -17 10 -17 -74
145 -175 258 -159 25 3 80 22 123 41 43 19 84 32 92 30 7 -3 16 -19 20 -36 5
-23 1 -35 -15 -51 -12 -12 -28 -37 -36 -56 -16 -39 -19 -104 -4 -104 11 0 12
4 15 61 2 40 32 92 47 83 6 -4 7 -31 3 -70 -4 -35 -3 -64 2 -64 12 0 50 80 58
124 4 20 11 36 16 36 5 0 26 -16 48 -35 42 -38 51 -42 51 -21 0 18 -55 64 -86
72 -19 5 -24 13 -24 36 0 38 -57 98 -92 98 -13 0 -62 -14 -109 -31 -72 -26
-93 -30 -143 -25 -73 7 -99 24 -122 76 -17 38 -34 53 -34 30z"/>
<path d="M3387 7585 c-48 -24 -104 -54 -123 -65 -35 -22 -44 -40 -20 -40 9 0
12 -8 9 -24 -4 -19 2 -26 34 -38 76 -31 98 -31 158 -2 43 20 64 38 86 72 16
25 29 52 29 59 0 16 -62 83 -76 83 -5 0 -49 -20 -97 -45z m83 -51 c28 -73 -71
-129 -120 -67 -22 28 -24 64 -4 70 7 2 10 -6 6 -22 -5 -31 21 -65 51 -65 51 0
78 77 37 102 -26 17 -26 32 0 18 12 -6 25 -22 30 -36z m-56 -12 c2 -4 1 -14
-4 -22 -7 -11 -12 -12 -21 -3 -6 6 -8 16 -5 22 8 13 23 14 30 3z"/>
<path d="M2895 7586 c-50 -22 -77 -59 -81 -113 -3 -38 -2 -43 5 -23 5 14 12
36 15 50 9 41 62 73 127 78 55 4 58 3 103 -38 26 -24 49 -40 53 -36 9 8 -45
64 -79 82 -34 17 -103 17 -143 0z"/>
<path d="M3045 7464 c-44 -8 -112 -21 -152 -30 l-71 -16 -4 -45 c-4 -55 5 -66
70 -87 103 -35 256 29 277 116 5 21 3 29 -9 34 -9 3 -15 13 -14 22 4 21 -6 22
-97 6z m10 -94 c-17 -53 -90 -70 -119 -28 -19 26 -21 64 -5 74 8 4 9 -1 4 -15
-10 -33 19 -71 54 -71 41 0 55 22 47 73 l-6 42 16 -28 c8 -15 12 -37 9 -47z
m-55 15 c0 -8 -7 -15 -15 -15 -16 0 -20 12 -8 23 11 12 23 8 23 -8z"/>
<path d="M3192 7318 c-17 -112 -23 -196 -12 -203 12 -8 60 17 84 44 11 12 29
21 40 21 38 0 96 21 96 34 0 16 -174 176 -192 176 -2 0 -9 -33 -16 -72z"/>
<path d="M3494 4895 c-22 -33 -6 -72 32 -81 33 -8 56 5 68 39 21 58 -66 94
-100 42z m86 -20 c0 -11 -5 -10 -20 5 -11 11 -20 22 -20 25 0 3 9 1 20 -5 11
-6 20 -17 20 -25z"/>
<path d="M3724 5146 c-14 -37 20 -59 56 -36 12 7 12 13 4 27 -15 24 -52 29
-60 9z"/>
<path d="M4800 4876 c0 -9 7 -16 16 -16 9 0 14 5 12 12 -6 18 -28 21 -28 4z"/>
<path d="M4722 4584 c-28 -19 -29 -57 -2 -84 24 -24 38 -25 68 -4 14 10 22 26
22 44 0 28 -30 60 -55 60 -6 0 -21 -7 -33 -16z m67 -22 c6 -11 6 -24 0 -33 -7
-11 -9 -10 -9 5 0 10 -8 25 -17 32 -17 12 -17 13 -1 14 10 0 22 -8 27 -18z"/>
</g>
</svg>
