<?xml version="1.0" standalone="no"?>
<!DOCTYPE svg PUBLIC "-//W3C//DTD SVG 20010904//EN"
 "http://www.w3.org/TR/2001/REC-SVG-20010904/DTD/svg10.dtd">
<svg version="1.0" xmlns="http://www.w3.org/2000/svg"
 width="708.000000pt" height="1000.000000pt" viewBox="0 0 708.000000 1000.000000"
 preserveAspectRatio="xMidYMid meet">

<g transform="translate(0.000000,1000.000000) scale(0.100000,-0.100000)"
fill="#000000" stroke="none">
<path d="M3980 8037 c0 -3 13 -25 29 -49 42 -64 84 -138 77 -138 -13 0 -142
52 -150 60 -6 6 -14 10 -18 10 -16 0 -8 -27 22 -73 17 -26 30 -49 30 -51 0 -1
-107 -3 -238 -4 -131 -1 -272 -6 -312 -11 l-73 -10 -151 77 c-83 42 -154 79
-158 80 -25 11 -1 -30 45 -76 50 -52 51 -54 17 -37 -19 10 -66 38 -103 62 -37
25 -69 44 -71 42 -1 -2 -12 -17 -24 -33 -12 -16 -22 -40 -22 -53 0 -13 30 -75
66 -136 l65 -112 -84 84 c-47 45 -87 79 -90 75 -3 -5 10 -34 29 -64 18 -30 38
-63 44 -73 11 -17 9 -17 -12 -7 -13 7 -33 21 -45 32 -12 11 -26 17 -31 14 -6
-3 -13 -37 -17 -74 -3 -37 -11 -79 -16 -93 -6 -16 -6 -34 0 -51 8 -22 5 -30
-25 -59 l-34 -33 -39 38 c-22 22 -50 58 -63 82 -13 24 -27 44 -31 44 -30 0 76
-250 149 -352 51 -72 24 -58 -55 30 -39 42 -71 71 -71 64 0 -16 88 -148 133
-198 l32 -37 -34 17 c-18 10 -53 36 -78 58 -32 31 -47 38 -55 30 -23 -23 121
-203 221 -277 75 -54 158 -91 261 -114 65 -15 116 -35 162 -62 94 -55 138 -69
250 -79 101 -9 144 -25 190 -67 l27 -25 -32 -48 -31 -47 -93 43 c-178 83 -417
178 -467 187 -45 8 -73 -8 -87 -47 -7 -20 -19 -36 -27 -36 -8 0 -26 -8 -40
-19 -19 -13 -74 -25 -182 -40 -85 -12 -256 -42 -380 -66 -124 -25 -318 -58
-431 -74 l-205 -29 -73 25 c-40 13 -100 27 -135 30 -55 5 -70 2 -117 -21 -97
-49 -119 -71 -119 -119 0 -50 40 -140 69 -159 25 -15 27 -28 6 -28 -19 0 -34
-38 -28 -71 3 -17 -9 -52 -35 -105 -23 -43 -53 -115 -67 -159 -27 -79 -27 -80
-20 -285 9 -247 3 -307 -30 -320 -13 -5 -42 -33 -64 -62 -22 -29 -49 -65 -61
-80 -21 -28 -27 -73 -10 -83 15 -9 12 -82 -4 -108 -14 -23 -14 -33 13 -323 9
-101 29 -160 57 -171 7 -3 14 -12 14 -19 0 -8 6 -17 14 -20 8 -3 17 -25 20
-49 8 -47 25 -69 53 -63 12 2 24 28 43 93 15 50 37 108 49 130 12 22 20 33 17
25 -30 -93 -37 -125 -34 -161 2 -23 8 -44 14 -46 11 -4 122 162 163 244 12 24
21 55 20 70 -2 35 13 74 52 135 23 35 29 53 23 70 -13 40 -5 160 12 186 21 32
6 87 -36 132 -17 18 -30 40 -30 50 0 33 -19 70 -36 70 -16 0 -16 1 -1 18 40
44 50 98 77 402 7 69 16 150 22 180 26 137 83 230 142 230 45 0 63 18 69 69 9
75 62 115 212 164 206 67 420 103 672 113 l162 7 10 -24 c5 -13 22 -36 38 -51
25 -24 38 -28 99 -30 l71 -3 -15 -22 c-8 -13 -18 -23 -23 -23 -5 0 -11 -11
-15 -23 -6 -25 -68 -62 -85 -51 -17 10 -57 -24 -70 -60 -7 -19 -23 -40 -36
-47 -28 -15 -50 -47 -69 -101 -8 -22 -30 -58 -48 -79 -19 -21 -40 -56 -47 -78
-7 -23 -15 -41 -19 -41 -19 0 -52 -86 -57 -147 -6 -73 16 -184 42 -213 12 -13
4 -28 -66 -115 -44 -55 -103 -136 -130 -179 l-49 -79 -164 -1 c-146 -1 -166
-3 -185 -20 -12 -11 -21 -24 -21 -31 0 -7 -9 -20 -19 -29 -26 -23 -42 -100
-30 -136 12 -33 -19 -246 -56 -385 -38 -144 -40 -173 -15 -261 11 -44 43 -123
70 -177 98 -194 198 -324 306 -395 41 -28 48 -29 212 -35 93 -4 218 -13 278
-21 60 -8 174 -20 254 -26 132 -11 156 -17 265 -57 162 -61 164 -61 300 -78
93 -11 407 -22 447 -16 4 1 -2 26 -13 58 -25 74 -24 78 10 54 16 -12 33 -21
38 -21 14 0 32 158 39 340 7 221 4 210 63 210 39 0 59 -7 101 -35 29 -19 56
-35 60 -35 4 0 10 -10 13 -23 4 -12 24 -40 46 -61 l40 -39 -38 -51 c-106 -145
-349 -601 -402 -755 -11 -30 -28 -63 -39 -73 -11 -10 -20 -24 -20 -31 0 -7
-15 -19 -34 -25 -55 -20 -96 -74 -96 -125 0 -24 5 -48 11 -54 8 -8 1 -25 -25
-61 -20 -27 -36 -54 -36 -60 0 -6 -24 -39 -54 -73 -51 -58 -55 -67 -62 -127
-6 -57 -4 -67 12 -79 34 -25 177 -64 255 -70 l78 -6 70 68 c39 38 71 74 71 81
0 7 37 24 83 39 45 15 102 38 126 51 24 13 52 24 63 24 10 0 33 7 51 15 108
49 169 110 171 171 1 34 -2 38 -42 52 -39 15 -44 15 -71 -1 -19 -11 -39 -14
-63 -11 -20 4 -59 1 -87 -5 -40 -8 -60 -8 -90 3 -26 8 -55 11 -85 6 -44 -6
-46 -6 -46 17 0 13 11 46 25 73 55 108 415 670 434 678 8 3 17 -16 93 -208 27
-69 79 -181 116 -250 89 -169 176 -347 190 -390 6 -19 20 -86 32 -148 11 -61
29 -130 40 -151 l20 -40 -40 -43 c-23 -24 -48 -56 -56 -72 -19 -35 -44 -114
-44 -141 0 -32 89 -114 153 -141 57 -24 59 -24 111 -8 70 22 128 11 131 -25 3
-34 28 -49 94 -56 35 -4 85 -20 136 -45 122 -59 151 -70 204 -77 59 -7 101 2
101 21 0 12 7 13 32 5 75 -21 138 0 108 36 -11 13 -7 15 23 15 19 0 42 3 51 6
19 7 21 40 4 47 -7 2 7 10 32 17 48 13 83 37 74 52 -3 4 -2 8 3 7 38 -7 60 30
43 71 -12 29 -34 41 -106 60 -23 5 -47 17 -54 25 -7 8 -31 20 -54 27 -22 7
-47 18 -54 25 -8 8 -39 13 -81 13 -62 0 -71 3 -114 36 -30 23 -61 38 -89 42
-24 3 -56 14 -73 24 -18 10 -49 18 -76 18 -34 0 -65 10 -115 36 -38 20 -79 41
-91 47 -18 9 -23 21 -23 52 0 22 -6 50 -14 61 -8 11 -18 49 -22 84 -6 54 -12
70 -44 104 -36 39 -39 51 -90 269 -57 252 -97 391 -198 695 l-67 203 22 17
c12 9 45 61 72 115 l50 98 -14 47 c-8 26 -27 58 -43 72 -15 14 -34 44 -40 66
-19 66 -35 73 -91 43 -32 -17 -55 -23 -75 -20 -28 6 -31 11 -46 81 -23 109
-89 195 -163 214 -24 6 -30 3 -34 -14 -4 -14 -11 -19 -23 -15 -9 3 -42 -6 -74
-20 -52 -23 -68 -25 -202 -25 l-146 0 -35 30 c-18 17 -42 30 -53 30 -11 0 -53
7 -95 17 -73 16 -75 17 -85 52 -6 20 -24 52 -41 71 l-30 35 -37 -43 -37 -42
-132 0 c-72 0 -167 5 -210 11 -72 9 -295 49 -300 53 -1 1 84 2 190 3 106 1
224 5 262 10 67 8 70 9 73 36 3 26 2 27 -51 27 -29 0 -79 5 -110 11 -46 10
-68 9 -121 -5 -36 -9 -82 -16 -103 -16 l-38 1 49 25 c82 43 130 83 153 126 25
50 22 61 -22 82 -96 46 -244 -10 -326 -123 -21 -30 -39 -47 -39 -39 0 30 -41
60 -137 102 -54 24 -116 49 -136 55 -20 7 -37 16 -37 19 2 32 306 394 376 447
33 25 103 55 129 55 7 0 15 -14 19 -31 5 -25 10 -30 28 -27 20 3 23 9 22 45
-1 80 21 55 50 -56 33 -121 50 -161 71 -161 8 0 18 12 21 26 9 33 -4 153 -22
212 -7 26 -14 54 -14 62 0 55 74 -165 90 -267 15 -101 19 -113 35 -113 40 0
46 103 14 266 l-20 107 20 21 c11 11 24 17 28 13 8 -9 11 -312 3 -402 -5 -58
-4 -60 20 -63 36 -4 108 50 129 99 10 22 36 55 58 74 22 19 46 49 53 67 8 18
27 48 43 67 16 19 36 49 43 67 8 18 20 37 27 41 22 13 47 56 47 80 0 12 11 39
25 60 14 20 25 46 23 58 -2 11 5 29 14 39 11 13 18 36 18 63 0 24 5 43 11 43
5 0 17 16 25 36 l15 35 31 -26 c25 -21 37 -25 62 -19 17 4 36 7 42 8 13 1 177
-243 288 -428 148 -244 256 -496 256 -593 0 -28 10 -69 26 -104 26 -57 27 -68
8 -141 -5 -24 -2 -30 25 -45 17 -10 29 -22 27 -28 -8 -23 17 -57 66 -89 72
-46 124 -104 212 -239 80 -124 231 -444 297 -631 39 -111 48 -124 84 -127 11
-1 2 -5 -20 -8 -39 -6 -40 -7 -39 -47 1 -23 4 -46 8 -53 5 -7 -3 -15 -22 -22
-41 -14 -99 -103 -116 -180 -8 -33 -20 -67 -26 -75 -7 -7 -10 -26 -7 -41 6
-33 -7 -70 -35 -100 -20 -21 -20 -24 -4 -48 11 -17 25 -25 46 -25 31 0 70 30
70 53 0 7 16 28 35 47 29 28 35 41 35 75 0 39 9 68 44 135 15 30 43 28 66 -3
28 -39 71 -181 77 -255 4 -48 12 -79 22 -89 9 -8 32 -54 51 -101 23 -57 43
-90 57 -98 13 -6 36 -29 53 -52 46 -64 96 -92 148 -85 44 6 53 23 33 61 -6 9
-12 29 -15 43 -3 15 -21 48 -39 75 -42 62 -66 120 -66 160 0 42 -60 332 -76
369 -45 101 -55 132 -56 174 -1 58 -12 97 -27 94 -8 -2 -8 6 0 29 10 30 9 33
-39 77 -55 51 -68 73 -103 171 -23 67 -27 76 -104 246 -25 56 -46 104 -46 108
0 11 -114 290 -165 405 l-46 104 21 48 c24 57 19 90 -17 119 -13 10 -24 27
-23 37 4 36 -1 42 -50 52 -74 16 -109 33 -170 83 -48 39 -74 76 -178 254 -190
323 -255 439 -397 714 l-132 255 32 32 c32 31 50 69 36 77 -4 3 34 47 84 98
107 108 157 181 176 258 17 69 55 135 128 225 l58 71 6 88 c4 59 2 96 -5 110
-7 11 -12 62 -13 111 -1 117 -44 276 -85 320 -15 17 -31 47 -34 67 -21 118
-149 277 -306 381 -75 50 -280 133 -280 114z m173 -87 c149 -69 331 -244 362
-348 6 -21 5 -23 -14 -13 -11 6 -41 37 -67 69 -46 57 -64 72 -64 54 0 -16 173
-231 211 -262 22 -18 79 -204 79 -260 0 -21 -3 -19 -19 15 -23 49 -47 82 -55
74 -8 -8 63 -221 80 -240 16 -18 18 -67 3 -124 -5 -22 -11 -48 -14 -57 -6 -26
-49 -81 -53 -68 -2 6 1 31 7 55 6 24 11 54 11 66 0 19 -4 20 -32 15 l-33 -6 0
149 c0 82 -3 153 -8 157 -9 10 -58 -36 -51 -48 3 -5 11 -4 19 2 9 8 14 6 19
-5 3 -8 1 -15 -5 -15 -7 0 -9 -41 -8 -114 2 -111 1 -115 -24 -146 -15 -17 -27
-41 -27 -52 0 -18 4 -17 56 13 l56 32 -7 -44 c-9 -58 -34 -82 -131 -131 -74
-36 -84 -45 -104 -88 -27 -57 -34 -60 -157 -60 -96 0 -170 11 -240 37 -37 14
-42 19 -47 57 -6 36 -19 54 -86 121 -80 79 -80 80 -80 133 0 78 20 80 87 8 29
-31 58 -54 63 -51 6 4 7 12 3 18 -4 6 -21 50 -39 96 l-32 86 39 77 c21 43 39
82 39 88 0 28 -20 2 -60 -76 l-44 -87 21 -59 22 -58 -37 30 c-37 30 -66 38
-77 20 -3 -5 -9 -29 -13 -52 -7 -37 -11 -43 -42 -51 -44 -11 -157 6 -219 34
-24 10 -46 17 -49 14 -17 -17 185 -74 248 -70 14 1 32 -5 39 -13 12 -12 11
-13 -8 -7 -20 6 -22 5 -12 -13 10 -19 8 -20 -29 -18 -22 2 -37 -1 -34 -5 3 -5
17 -9 32 -9 29 0 46 -9 49 -25 1 -5 5 -18 8 -27 6 -15 2 -18 -21 -18 l-29 -1
33 -14 c50 -22 41 -41 -26 -54 -47 -9 -68 -8 -116 4 -32 9 -61 13 -63 11 -7
-7 97 -36 128 -36 15 0 31 -5 34 -10 4 -6 11 -7 17 -4 7 4 8 2 4 -4 -4 -6 2
-17 14 -24 11 -7 20 -21 20 -30 0 -17 -2 -17 -37 2 -20 10 -40 17 -45 14 -4
-3 -8 -2 -8 3 0 4 -19 9 -43 11 -23 1 -69 10 -101 18 -33 9 -68 16 -78 17 -10
1 -18 6 -18 11 0 5 -3 7 -6 3 -3 -3 -24 5 -45 19 -21 13 -45 24 -54 24 -8 0
-15 5 -15 12 0 6 -3 8 -6 5 -4 -4 -25 8 -47 25 -26 21 -42 28 -45 20 -8 -25
-72 -1 -72 27 0 6 -4 11 -9 11 -16 0 -100 91 -138 150 -20 30 -40 57 -43 60
-4 3 -36 46 -72 95 -63 87 -98 147 -132 230 l-17 40 38 -37 c44 -43 67 -47 85
-18 17 27 30 25 50 -8 9 -15 42 -66 75 -114 32 -48 75 -114 96 -147 21 -34 45
-61 53 -61 18 0 -30 91 -119 224 -56 84 -117 202 -117 226 0 6 28 -25 61 -70
75 -99 155 -187 163 -179 4 3 -28 53 -70 110 -95 130 -134 205 -134 259 l0 41
41 -23 c22 -13 67 -57 101 -98 54 -68 128 -140 128 -126 0 3 -21 34 -46 68
-25 35 -55 81 -66 103 -12 22 -34 58 -51 80 -18 24 8 3 64 -50 52 -49 96 -94
98 -100 8 -22 119 -116 125 -106 4 5 -26 45 -65 88 -81 88 -159 195 -195 266
-31 60 -15 52 56 -28 29 -33 58 -64 64 -70 6 -5 36 -38 65 -72 86 -101 79 -73
-12 41 -101 128 -209 276 -201 276 3 0 25 -12 50 -26 24 -14 44 -23 44 -19 0
4 28 -9 63 -27 73 -41 117 -54 117 -36 0 6 -12 25 -27 41 -26 28 -26 29 -5 17
13 -6 35 -14 49 -16 14 -3 42 -13 63 -24 36 -18 49 -19 231 -9 209 10 486 10
468 -1 -6 -5 3 -16 24 -29 57 -35 78 -24 33 18 -34 32 -89 111 -77 111 22 0
128 -44 156 -65 17 -12 43 -25 58 -29 15 -4 54 -31 85 -61 80 -78 100 -74 36
7 -34 44 -61 66 -149 121 -25 15 -52 45 -72 80 -44 78 -32 85 70 37z m-1212
-1062 c27 -40 35 -59 27 -64 -7 -4 -18 2 -26 14 -8 12 -23 22 -33 22 -11 0
-19 5 -19 11 0 5 5 7 10 4 18 -11 11 6 -18 44 -16 20 -32 44 -35 54 -13 34 53
-25 94 -85z m-121 27 c5 3 11 1 14 -4 4 -5 -2 -8 -11 -7 -9 2 -18 8 -19 15 -1
6 0 7 3 1 2 -5 9 -8 13 -5z m963 -230 c-5 -76 -4 -84 26 -143 37 -73 87 -111
190 -142 100 -32 218 -22 317 26 70 34 87 54 129 161 20 51 44 98 52 105 14
11 15 7 8 -40 -20 -145 -41 -184 -180 -329 -100 -105 -116 -112 -238 -113 -89
0 -121 16 -189 93 -144 164 -158 198 -158 389 l0 109 25 -18 c23 -17 24 -21
18 -98z m-533 -138 c115 -45 327 -138 387 -170 21 -11 42 -37 63 -79 18 -35
41 -75 51 -90 10 -14 19 -31 19 -37 0 -6 15 -18 33 -27 32 -15 36 -15 97 11
51 21 79 27 135 26 38 0 94 3 123 8 40 6 55 5 63 -6 9 -11 7 -19 -10 -37 l-22
-23 -37 18 c-55 28 -112 21 -135 -17 -4 -8 -23 -14 -41 -14 -19 0 -39 -7 -46
-16 -8 -8 -34 -27 -59 -41 -25 -15 -58 -37 -73 -51 -24 -22 -28 -23 -55 -10
-28 13 -28 15 -25 90 l4 76 -58 68 c-103 124 -137 155 -219 196 -91 46 -331
128 -375 128 -32 0 -39 17 -17 39 18 19 69 8 197 -42z m750 11 c27 -9 87 -16
150 -17 117 -2 140 -6 140 -26 0 -40 -212 -45 -319 -7 -42 14 -57 24 -62 44
-6 22 -4 24 20 23 14 -1 46 -9 71 -17z m-954 -59 c24 -6 44 -14 44 -18 0 -4
25 -38 56 -75 33 -40 53 -73 50 -82 -3 -8 -21 -23 -40 -35 -18 -11 -36 -28
-39 -38 -5 -21 -45 -31 -124 -31 -47 0 -59 4 -84 29 -34 34 -37 51 -9 51 11 0
20 5 20 10 0 14 -276 13 -416 -1 -159 -15 -341 -53 -489 -101 -115 -37 -135
-47 -178 -87 -37 -35 -49 -55 -54 -86 -7 -51 -53 -92 -53 -47 0 9 -7 26 -16
37 -10 14 -13 31 -9 58 7 41 1 46 -28 20 -13 -13 -37 -18 -78 -19 -43 -1 -65
-7 -80 -20 -37 -33 -112 -9 -147 49 -12 18 -27 54 -33 79 -15 57 -6 71 79 120
64 36 106 39 215 12 56 -13 66 -19 50 -25 -21 -8 -35 -7 -135 7 -64 8 -62 -9
3 -24 67 -16 133 -15 199 2 30 8 87 17 125 21 119 11 321 43 530 85 231 45
470 81 489 74 7 -3 30 6 51 20 43 30 42 30 101 15z m219 -29 c150 -50 154 -53
133 -77 -8 -10 -19 -29 -23 -41 -5 -18 -12 -22 -28 -18 -12 3 -39 1 -59 -3
-33 -8 -38 -6 -44 13 -4 11 -25 44 -49 71 -45 54 -70 95 -58 95 4 0 62 -18
128 -40z m799 3 c69 -12 101 -14 145 -6 55 11 91 4 91 -17 0 -17 -110 -42
-184 -43 -105 0 -252 56 -226 88 8 9 20 10 48 3 20 -5 77 -16 126 -25z m-272
-85 c30 -42 38 -61 31 -73 -9 -15 -13 -14 -40 9 -36 31 -66 88 -57 111 10 24
23 15 66 -47z m-347 -24 c-23 -21 -27 -31 -22 -61 9 -52 68 -136 164 -232 88
-89 98 -122 20 -71 -103 69 -217 229 -217 305 0 39 34 85 62 85 19 0 19 -2 -7
-26z m259 0 c3 -8 2 -12 -4 -9 -6 3 -10 10 -10 16 0 14 7 11 14 -7z m-189 -14
c4 -6 -9 -10 -32 -10 -28 0 -34 3 -23 10 20 13 47 13 55 0z m273 -70 c10 0 10
-5 2 -20 -16 -31 -27 -24 -56 33 l-26 52 34 -32 c19 -18 40 -33 46 -33z m-235
18 c32 -12 33 -19 8 -42 -17 -16 -21 -15 -64 11 -58 35 -63 58 -9 49 20 -4 49
-12 65 -18z m-185 -10 c3 -13 -3 -18 -22 -18 -14 0 -26 2 -26 4 0 2 -3 12 -6
21 -6 13 -1 16 22 13 18 -2 30 -10 32 -20z m563 -92 c-20 -7 -29 -2 -63 31
-36 36 -39 43 -28 63 12 22 13 21 63 -31 51 -53 52 -54 28 -63z m-634 62 c26
-96 180 -274 273 -318 52 -24 61 -36 34 -47 -30 -11 -118 41 -195 117 -59 59
-85 94 -119 161 -29 60 -40 93 -35 108 10 34 30 24 42 -21z m-67 12 c0 -5 -5
-10 -11 -10 -5 0 -7 5 -4 10 3 6 8 10 11 10 2 0 4 -4 4 -10z m460 -119 c0 -4
-8 -15 -17 -24 -16 -13 -21 -14 -37 -1 -46 33 -69 97 -45 121 8 8 23 -2 55
-38 24 -27 44 -53 44 -58z m-306 73 c4 -10 -2 -14 -19 -14 -14 0 -25 2 -25 4
0 2 -3 11 -6 19 -4 11 1 13 20 10 13 -3 27 -11 30 -19z m131 -3 c14 -23 -15
-18 -30 5 -16 25 -16 25 4 15 11 -6 22 -15 26 -20z m362 -53 c-24 -15 -64 -8
-79 14 -14 20 -14 25 1 45 l16 22 37 -37 c27 -26 34 -38 25 -44z m-717 28 c13
-39 91 -156 156 -231 53 -63 132 -119 191 -136 l42 -12 -27 -37 -26 -37 -81
61 c-100 76 -162 140 -225 234 -52 76 -75 139 -65 172 9 29 22 24 35 -14z m83
13 c5 -18 1 -20 -26 -17 -21 2 -33 9 -35 21 -5 27 54 24 61 -4z m167 -34 c11
-13 9 -15 -13 -15 -14 0 -27 7 -31 15 -3 10 1 15 13 15 10 0 24 -7 31 -15z
m140 8 c0 -5 18 -32 40 -60 22 -29 36 -53 31 -53 -14 0 -101 102 -95 112 6 10
24 11 24 1z m-448 -28 c4 -16 1 -25 -8 -25 -17 0 -25 15 -18 34 9 24 21 19 26
-9z m166 2 c9 -10 4 -12 -24 -9 -19 2 -37 8 -40 13 -8 14 52 10 64 -4z m162
-32 c-10 -12 -16 -13 -26 -4 -20 16 -18 19 12 19 22 0 25 -2 14 -15z m-354
-51 c71 -160 211 -299 357 -353 30 -12 34 -23 13 -40 -11 -9 -31 -5 -93 18
-104 41 -134 61 -180 119 -55 69 -124 210 -130 265 -3 26 -3 47 1 47 4 0 18
-25 32 -56z m216 39 c26 -23 22 -33 -11 -33 -20 0 -34 8 -45 25 -16 25 -16 25
10 25 15 0 36 -7 46 -17z m861 -40 c19 -27 88 -154 154 -283 120 -236 159
-306 373 -675 155 -265 233 -343 363 -361 55 -8 59 -22 28 -90 -20 -45 -39
-63 -50 -47 -3 6 -15 13 -26 17 -19 5 -22 0 -32 -60 -6 -36 -14 -69 -18 -72
-3 -3 -34 -8 -69 -10 -45 -3 -72 0 -94 12 -36 19 -36 20 -21 78 11 39 9 48
-16 97 -17 35 -29 77 -32 115 -14 164 -161 463 -413 841 -59 88 -126 193 -149
233 -46 80 -76 90 -36 13 13 -27 21 -51 18 -55 -4 -3 -21 -6 -40 -6 -27 0 -38
7 -63 42 -17 23 -33 53 -37 67 -8 34 26 97 50 93 16 -3 17 0 7 18 -23 44 -3
72 57 79 6 0 27 -20 46 -46z m-1025 19 c3 -9 -2 -13 -14 -10 -9 1 -19 9 -22
16 -3 9 2 13 14 10 9 -1 19 -9 22 -16z m377 -33 c36 -38 45 -53 36 -62 -14
-14 -112 79 -104 99 8 22 17 17 68 -37z m185 1 c0 -43 -5 -47 -34 -25 -19 15
-19 15 4 40 13 14 25 25 27 25 2 0 3 -18 3 -40z m-670 5 c0 -8 -9 -15 -20 -15
-22 0 -27 15 -7 23 21 9 27 7 27 -8z m923 -17 c-10 -55 -17 -61 -38 -38 -19
21 -19 21 10 45 17 13 31 24 32 25 1 0 0 -15 -4 -32z m47 -10 c-11 -65 -26
-93 -62 -119 -22 -16 -46 -24 -73 -23 -61 1 -95 12 -89 28 4 10 14 11 47 3 80
-18 143 28 154 113 3 22 11 40 18 40 8 0 10 -12 5 -42z m-836 7 c3 -10 -1 -15
-13 -15 -10 0 -21 7 -25 15 -3 10 1 15 13 15 10 0 21 -7 25 -15z m182 4 c3 -6
0 -17 -8 -25 -12 -12 -17 -11 -38 11 l-23 25 31 0 c17 0 34 -5 38 -11z m-1674
-35 c34 -34 35 -39 3 -68 -64 -60 -97 -174 -120 -411 -27 -291 -34 -332 -63
-368 -14 -18 -27 -34 -28 -36 -2 -1 -7 0 -13 3 -6 4 -3 27 10 64 43 124 60
264 66 546 6 249 8 271 26 289 26 26 80 17 119 -19z m1358 -118 c47 -84 132
-171 197 -202 30 -15 87 -35 126 -43 61 -14 73 -20 75 -39 4 -27 1 -27 -108
-3 -176 39 -258 88 -305 182 -32 63 -55 151 -55 209 l1 45 18 -46 c10 -26 33
-72 51 -103z m-97 119 c-3 -9 -8 -14 -10 -11 -3 3 -2 9 2 15 9 16 15 13 8 -4z
m115 -2 c2 -8 -6 -13 -22 -13 -17 0 -26 5 -26 16 0 19 41 16 48 -3z m-1556 -9
c4 -3 8 -23 8 -45 0 -32 -5 -42 -23 -50 -30 -13 -140 -230 -157 -307 -21 -93
19 -318 76 -422 35 -65 28 -80 -35 -80 -27 0 -61 -4 -75 -10 l-26 -10 5 58 c3
31 8 75 11 96 3 22 -1 112 -7 201 -12 156 -11 163 10 236 13 40 45 120 72 177
35 73 48 109 43 127 -9 37 3 48 49 41 22 -4 44 -9 49 -12z m2413 -4 c14 -16
16 -23 7 -32 -9 -9 -18 -6 -37 12 -19 18 -22 26 -13 32 19 11 23 10 43 -12z
m-700 -16 c16 -25 16 -26 -6 -22 -12 2 -28 13 -37 26 -13 20 -13 22 6 22 11 0
27 -12 37 -26z m263 -69 c1 -1 -4 -8 -12 -14 -12 -11 -24 -4 -66 35 -40 37
-48 50 -39 61 10 11 21 5 63 -34 28 -26 52 -47 54 -48z m-401 52 c4 -7 0 -8
-11 -4 -10 4 -24 7 -32 7 -8 0 -14 4 -14 9 0 11 49 1 57 -12z m558 0 c47 -32
33 -41 -21 -14 -29 14 -40 24 -31 29 16 10 13 11 52 -15z m235 3 l25 -20 -26
0 c-18 0 -28 6 -32 20 -6 25 1 25 33 0z m-925 0 c3 -5 -1 -10 -9 -10 -9 0 -16
5 -16 10 0 6 4 10 9 10 6 0 13 -4 16 -10z m795 1 c0 -5 9 -11 20 -13 18 -3 10
-18 -61 -128 -45 -69 -90 -143 -100 -165 -10 -22 -51 -72 -91 -111 -92 -88
-105 -96 -83 -53 10 18 25 60 35 94 13 46 34 82 84 145 37 46 90 119 119 162
46 69 77 97 77 69z m-822 -145 c46 -103 166 -253 221 -276 28 -11 110 -6 245
17 31 5 38 3 34 -8 -12 -36 -180 -116 -393 -187 -252 -85 -347 -89 -376 -19
-19 44 -19 241 0 259 11 11 12 7 5 -27 -10 -49 -11 -120 -1 -158 4 -15 24 -45
43 -67 29 -32 43 -40 70 -40 50 0 54 24 11 68 -57 59 -87 134 -86 217 l1 70 9
-55 c11 -77 45 -163 83 -213 32 -41 34 -42 90 -41 44 1 63 6 79 22 l21 21 -34
28 c-69 58 -99 94 -127 150 -24 51 -28 69 -28 148 0 100 20 169 58 201 22 19
22 19 6 -1 -31 -40 -44 -89 -42 -167 1 -64 7 -90 32 -144 31 -66 122 -167 162
-179 10 -4 19 -11 19 -16 0 -5 16 -9 35 -9 26 0 39 6 52 26 17 26 17 27 -18
55 -73 61 -118 113 -151 172 -48 89 -57 122 -56 212 0 72 1 75 8 34 4 -26 17
-67 28 -93z m32 110 c0 -8 3 -21 6 -29 4 -12 0 -14 -15 -10 -28 7 -35 21 -21
38 16 19 30 19 30 1z m148 -15 c11 -14 10 -16 -8 -19 -20 -3 -49 21 -50 41 0
13 44 -3 58 -22z m150 3 c-9 -9 -21 -13 -27 -10 -20 13 -11 26 16 26 25 0 26
-1 11 -16z m311 -40 c40 -21 49 -30 40 -40 -9 -11 -20 -10 -62 6 -29 11 -53
20 -55 20 -1 0 3 9 10 20 7 11 14 20 14 20 1 0 25 -12 53 -26z m-190 -86 c2
-18 -20 -5 -68 38 -28 25 -48 50 -45 56 6 9 111 -79 113 -94z m616 92 c3 -6 3
-20 -1 -33 -7 -21 -7 -21 -15 -2 -4 11 -8 26 -8 33 -1 14 15 16 24 2z m-2469
-197 c-7 -197 -29 -365 -62 -473 -18 -61 -22 -59 -55 38 -53 153 -64 302 -28
398 28 74 97 205 117 222 9 6 20 12 25 12 6 0 7 -74 3 -197z m1452 170 c6 -19
-35 -16 -42 3 -4 11 0 15 16 12 12 -2 23 -9 26 -15z m162 2 c7 -9 11 -17 8
-20 -8 -8 -47 7 -52 21 -7 19 28 18 44 -1z m698 3 c20 -20 13 -28 -13 -16 -14
6 -25 15 -25 20 0 12 24 10 38 -4z m121 -18 c9 -26 8 -30 -8 -30 -22 0 -46 46
-28 54 22 8 25 6 36 -24z m-1102 -2 c-3 -8 -6 -5 -6 6 -1 11 2 17 5 13 3 -3 4
-12 1 -19z m1033 18 c0 -2 3 -11 6 -20 9 -23 -13 -20 -26 4 -9 16 -8 20 5 20
8 0 15 -2 15 -4z m40 -70 c26 0 57 6 67 14 10 8 6 1 -9 -15 -39 -42 -116 -47
-192 -12 -55 25 -67 42 -45 64 8 8 27 2 70 -20 43 -22 74 -31 109 -31z m-944
29 c18 -15 18 -15 -5 -13 -14 2 -26 9 -29 16 -5 17 10 15 34 -3z m-116 -15 c0
-11 -7 -20 -15 -20 -15 0 -21 21 -8 33 12 13 23 7 23 -13z m290 6 c0 -3 -4 -8
-10 -11 -5 -3 -10 -1 -10 4 0 6 5 11 10 11 6 0 10 -2 10 -4z m-150 -36 c8 -16
8 -20 -4 -20 -9 0 -20 9 -26 20 -8 16 -8 20 4 20 9 0 20 -9 26 -20z m221 -25
c26 -25 54 -45 60 -45 7 0 10 -3 7 -6 -7 -6 -85 32 -110 54 -17 15 -25 42 -12
42 4 0 29 -20 55 -45z m539 -1 c0 -19 -10 -17 -39 5 -32 25 -19 47 15 25 13
-9 24 -23 24 -30z m-316 15 c15 -12 25 -23 23 -25 -8 -8 -78 27 -72 36 9 15
19 12 49 -11z m-581 -3 c3 -8 -2 -16 -14 -19 -14 -4 -19 0 -19 14 0 22 25 26
33 5z m171 -38 c8 -12 13 -25 10 -30 -7 -11 -31 8 -45 34 -14 27 16 24 35 -4z
m718 -13 c72 -39 131 -51 172 -35 27 10 28 9 15 -6 -48 -58 -186 -57 -274 0
-25 17 -25 17 -8 46 9 17 21 30 25 30 4 0 36 -16 70 -35z m86 25 c6 0 12 -9
12 -21 0 -16 -4 -19 -17 -14 -10 4 -26 10 -35 12 -28 8 -23 37 5 29 12 -3 28
-6 35 -6z m102 -8 c0 -15 -24 -32 -47 -32 -13 0 -22 5 -20 13 3 18 67 36 67
19z m-1199 -45 c-13 -13 -15 1 -4 30 7 17 8 17 11 -1 2 -10 -1 -23 -7 -29z
m147 25 c3 -10 -4 -13 -24 -10 -15 2 -29 9 -32 16 -3 10 4 13 24 10 15 -2 29
-9 32 -16z m-181 -24 c-3 -8 -6 -5 -6 6 -1 11 2 17 5 13 3 -3 4 -12 1 -19z
m198 -8 c4 -6 -8 -10 -29 -10 -20 0 -36 5 -36 10 0 6 13 10 29 10 17 0 33 -4
36 -10z m-147 -22 c-6 -18 -28 -21 -28 -4 0 9 7 16 16 16 9 0 14 -5 12 -12z
m174 -21 c14 -23 8 -28 -29 -25 -31 2 -39 7 -41 27 -4 22 -1 23 29 17 18 -3
37 -12 41 -19z m225 1 c61 -29 58 -27 46 -39 -13 -13 -58 8 -87 40 -24 27 -18
26 41 -1z m533 -10 c0 -5 -11 -1 -25 8 -14 9 -25 18 -25 20 0 2 11 -2 25 -8
14 -6 25 -15 25 -20z m25 -50 c28 -16 66 -28 86 -28 38 0 89 31 89 55 0 7 9
15 19 18 15 3 18 1 14 -12 -11 -32 -58 -71 -96 -82 -34 -9 -45 -7 -91 15 -28
14 -69 42 -91 62 -33 29 -34 33 -10 18 17 -10 53 -31 80 -46z m-937 28 c9 -21
8 -27 -12 -40 -28 -18 -36 -12 -36 24 0 46 30 56 48 16z m957 4 c3 -5 2 -10
-4 -10 -5 0 -13 5 -16 10 -3 6 -2 10 4 10 5 0 13 -4 16 -10z m-53 -82 c7 -18
6 -18 -22 2 -31 22 -60 58 -60 73 0 14 74 -54 82 -75z m119 72 c5 0 9 -7 9
-16 0 -11 -5 -14 -16 -10 -9 3 -20 6 -25 6 -5 0 -9 7 -9 16 0 11 5 14 16 10 9
-3 20 -6 25 -6z m49 -5 c-7 -9 -15 -13 -19 -10 -3 3 1 10 9 15 21 14 24 12 10
-5z m-915 -5 c-3 -5 -15 -10 -26 -10 -11 0 -17 5 -14 10 3 6 15 10 26 10 11 0
17 -4 14 -10z m135 -103 c23 -16 23 -18 8 -33 -15 -16 -20 -15 -60 9 -24 14
-54 37 -67 51 -24 25 -24 26 -6 46 18 20 18 20 59 -18 23 -21 52 -45 66 -55z
m541 57 c48 -50 118 -94 148 -94 28 0 91 34 91 49 0 5 6 11 14 14 12 5 13 1 4
-24 -12 -36 -53 -69 -83 -69 -39 0 -132 41 -173 76 -22 18 -42 30 -46 27 -15
-15 -5 -117 15 -149 38 -62 142 -67 188 -8 10 13 22 24 25 24 11 0 -11 -34
-40 -63 -24 -24 -34 -27 -94 -27 -61 0 -68 -2 -73 -22 -3 -12 -1 -30 4 -41 9
-15 19 -18 60 -15 48 3 48 3 29 -16 -14 -15 -34 -20 -76 -20 -54 -1 -58 -3
-67 -29 -6 -19 -6 -37 1 -50 9 -21 10 -21 46 16 38 40 46 35 22 -12 -15 -29
-92 -88 -102 -78 -3 3 -1 61 5 129 9 91 9 148 0 221 -9 80 -9 100 2 114 12 14
12 16 -1 8 -13 -8 -13 -7 0 11 25 34 53 64 60 64 3 0 22 -16 41 -36z m-811 8
c0 -5 -11 -14 -25 -20 -28 -13 -35 1 -7 17 21 13 32 14 32 3z m932 -47 c14
-18 8 -26 -11 -16 -10 6 -21 20 -24 31 -5 19 -3 20 11 8 9 -7 20 -17 24 -23z
m-902 5 c9 -17 7 -26 -14 -51 l-25 -30 -16 30 c-20 40 -19 50 8 61 32 13 35
12 47 -10z m-110 -91 c15 -20 18 -34 12 -45 -14 -26 -54 37 -59 94 l-4 47 15
-33 c9 -18 25 -46 36 -63z m1060 71 c0 -5 -4 -10 -9 -10 -6 0 -13 5 -16 10 -3
6 1 10 9 10 9 0 16 -4 16 -10z m-401 -27 c-12 -31 -4 -57 14 -50 10 4 18 -19
30 -86 26 -144 31 -197 18 -197 -6 0 -11 15 -11 33 0 39 -44 205 -70 263 -17
41 -18 44 -2 54 27 15 32 12 21 -17z m267 -22 c16 -7 23 -22 26 -51 3 -35 1
-40 -17 -40 -35 0 -67 43 -72 97 l-6 48 24 -21 c13 -12 34 -26 45 -33z m-737
-9 c31 -23 32 -26 15 -33 -10 -4 -26 -8 -34 -8 -18 -1 -49 48 -43 67 5 14 13
10 62 -26z m389 -42 c22 -70 36 -223 19 -199 -2 2 -17 56 -34 119 -22 83 -28
117 -20 122 15 9 22 1 35 -42z m432 -9 c0 -16 -18 -31 -36 -31 -2 0 -4 16 -4
35 0 33 2 35 20 25 11 -6 20 -19 20 -29z m-553 -13 c-3 -7 -5 -2 -5 12 0 14 2
19 5 13 2 -7 2 -19 0 -25z m-403 -19 c-3 -5 -10 -7 -15 -3 -5 3 -7 10 -3 15 3
5 10 7 15 3 5 -3 7 -10 3 -15z m140 -57 c7 -11 -43 -72 -59 -72 -7 0 -28 12
-46 27 l-33 28 40 12 c46 14 91 16 98 5z m-171 -32 c14 -11 30 -20 36 -20 5 0
21 -10 34 -23 l25 -22 -27 -33 c-15 -17 -34 -32 -42 -32 -34 0 -110 115 -94
140 10 16 41 11 68 -10z m901 14 c25 -10 19 -34 -9 -34 -18 0 -25 5 -25 20 0
21 8 24 34 14z m56 -8 c0 -3 -4 -8 -10 -11 -5 -3 -10 -1 -10 4 0 6 5 11 10 11
6 0 10 -2 10 -4z m-1023 -94 c12 4 73 -60 73 -75 0 -7 -12 -25 -26 -41 l-25
-28 -26 23 c-28 26 -62 93 -63 123 0 11 8 28 17 38 16 18 17 17 29 -12 7 -17
17 -29 21 -28z m913 -16 c0 -2 -7 -9 -15 -16 -12 -10 -15 -10 -15 4 0 9 7 16
15 16 8 0 15 -2 15 -4z m-988 -56 c12 0 43 -35 63 -72 13 -23 13 -31 3 -48
-28 -44 -97 -5 -117 66 -14 51 -14 51 7 79 l17 23 8 -24 c5 -13 13 -24 19 -24z
m-1090 -29 c5 -4 -8 -5 -27 -3 -19 2 -35 9 -35 14 0 11 49 2 62 -11z m-305
-28 c-3 -10 -8 -30 -11 -45 -4 -19 -13 -28 -26 -28 -26 0 -25 8 5 53 28 40 39
47 32 20z m63 1 c0 -2 -7 -4 -15 -4 -8 0 -15 4 -15 10 0 5 7 7 15 4 8 -4 15
-8 15 -10z m45 -15 c-8 -39 -18 -40 -29 -1 -6 18 -3 22 13 22 15 0 19 -5 16
-21z m1215 -21 c0 -4 3 -7 8 -6 4 1 26 -16 49 -37 l41 -38 -21 -33 c-17 -25
-27 -32 -42 -28 -33 10 -71 52 -85 93 -11 33 -10 42 6 66 17 25 19 26 31 9 7
-10 13 -21 13 -26z m-1116 -11 c8 -30 7 -40 -5 -48 -19 -12 -86 -12 -94 1 -7
11 22 71 39 83 26 17 51 2 60 -36z m134 4 c17 -17 32 -34 32 -39 0 -11 -97
-16 -103 -5 -3 4 -8 23 -12 41 -6 30 -5 32 22 32 18 0 41 -11 61 -29z m-292
-37 c-3 -8 -18 -14 -33 -14 l-27 0 30 31 c23 24 30 27 32 14 2 -9 1 -23 -2
-31z m1249 -75 c62 -52 65 -58 46 -91 -9 -15 -23 -28 -32 -28 -26 0 -68 38
-90 82 -20 40 -20 41 -3 74 17 31 19 32 29 15 5 -10 28 -33 50 -52z m-1329 15
c-3 -9 -6 -47 -6 -85 l0 -69 -32 0 c-25 0 -29 3 -20 12 18 18 15 113 -3 128
-25 21 -17 30 26 30 33 0 40 -3 35 -16z m284 9 c-1 -5 -7 -19 -14 -33 -8 -14
-12 -38 -9 -57 8 -47 -4 -83 -27 -83 -17 0 -20 7 -20 53 0 31 -6 61 -15 73
-21 28 -19 32 28 42 56 13 57 13 57 5z m-168 -13 c17 0 18 -3 8 -15 -8 -10
-11 -36 -8 -74 l4 -59 -31 -4 -31 -3 14 64 c9 44 10 67 2 75 -15 15 -12 29 6
22 9 -3 25 -6 36 -6z m303 0 c4 -6 2 -16 -3 -23 -6 -7 -13 -42 -17 -79 -7 -67
-8 -68 -36 -68 l-29 0 0 74 c0 41 -4 78 -10 81 -5 3 -10 10 -10 16 0 12 97 12
105 -1z m753 4 c43 -12 21 -19 -66 -22 -48 -2 -105 -7 -127 -12 -26 -6 -42 -5
-46 2 -10 16 -29 0 -26 -22 5 -29 27 -50 107 -102 41 -26 80 -51 85 -55 6 -5
15 -9 20 -10 6 -2 37 -13 70 -25 137 -51 490 -9 513 60 2 7 -2 12 -9 11 -8 -2
-52 15 -99 38 -47 22 -102 46 -122 53 -21 6 -38 16 -38 21 0 16 258 -88 285
-114 25 -26 18 -47 -22 -64 -131 -55 -336 -77 -458 -49 -105 25 -242 95 -310
160 -51 48 -57 57 -51 83 12 47 29 53 155 53 64 0 126 -3 139 -6z m-1123 -78
c-15 -98 -32 -96 -27 3 3 53 6 60 19 50 10 -9 12 -24 8 -53z m135 -33 c0 -57
-5 -63 -26 -35 -14 17 -19 103 -7 115 14 14 32 -31 33 -80z m130 -1 c-1 -64
-3 -74 -13 -57 -20 34 -17 153 4 140 5 -4 9 -41 9 -83z m949 15 c25 -24 55
-48 66 -54 16 -10 17 -15 7 -37 -9 -21 -19 -26 -47 -26 -48 0 -69 12 -96 56
-22 36 -22 37 -4 70 10 19 20 34 23 34 3 0 26 -19 51 -43z m852 33 c25 -14 24
-36 -1 -50 -16 -8 -18 -8 -14 4 8 20 -29 29 -84 21 -63 -9 -96 -28 -164 -93
-63 -60 -75 -59 -28 4 34 47 92 90 147 110 46 16 117 18 144 4z m-1247 -62
c-6 -30 -7 -31 -20 -13 -17 23 -18 47 -2 63 18 18 31 -11 22 -50z m60 -73 l-9
-37 -23 32 c-18 24 -22 38 -17 62 l7 30 25 -25 c22 -22 24 -29 17 -62z m1070
44 c-35 -34 -50 -42 -90 -46 l-49 -5 30 27 c36 31 102 64 130 65 16 0 12 -7
-21 -41z m-1144 -21 c0 -21 139 -145 197 -176 75 -39 192 -71 293 -79 156 -11
390 56 424 122 15 29 15 29 22 8 3 -13 11 -23 16 -23 23 0 -20 -34 -81 -65
-103 -51 -227 -79 -351 -78 -229 1 -404 81 -505 231 -46 68 -60 107 -30 82 8
-7 15 -17 15 -22z m314 16 c3 -8 2 -12 -4 -9 -6 3 -10 10 -10 16 0 14 7 11 14
-7z m-184 -37 c23 -19 25 -28 20 -65 l-5 -43 -33 28 c-31 26 -33 32 -27 66 4
20 10 37 14 37 3 0 17 -10 31 -23z m-1002 1 c14 -14 17 -175 4 -196 -12 -18
-39 -5 -46 21 -11 43 -7 175 7 180 19 8 22 8 35 -5z m156 -28 c-3 -46 -48
-182 -62 -187 -7 -3 -21 1 -29 10 -14 14 -14 23 1 98 19 95 29 111 65 107 21
-2 26 -8 25 -28z m-102 -20 c-2 -16 -8 -30 -13 -30 -10 0 -12 53 -3 63 13 13
21 -3 16 -33z m242 10 c-1 -23 -28 -96 -58 -160 -12 -27 -33 -35 -54 -22 -9 6
-5 28 18 96 34 101 45 118 74 114 15 -2 21 -10 20 -28z m-114 -67 c-49 -139
-65 -164 -34 -55 21 78 47 141 55 136 4 -2 -6 -39 -21 -81z m235 68 c3 -6 -8
-32 -24 -58 -32 -54 -51 -108 -48 -138 2 -16 -5 -21 -30 -23 -43 -4 -43 15 -3
110 17 38 30 75 30 82 0 29 60 51 75 27z m676 -12 c38 -19 41 -23 35 -51 -3
-17 -6 -39 -6 -49 0 -19 -1 -19 -40 1 -23 12 -43 27 -47 36 -6 15 5 84 13 84
3 0 23 -9 45 -21z m669 -46 c-12 -52 -33 -61 -41 -18 -3 20 -9 38 -12 42 -4 3
3 12 16 18 33 17 46 2 37 -42z m2240 20 c0 -9 -10 -36 -21 -60 l-21 -44 32
-72 c56 -123 130 -301 126 -304 -2 -2 -16 16 -31 39 -16 24 -47 68 -70 98 -62
81 -146 231 -137 246 4 7 27 27 51 44 24 18 46 40 48 51 7 23 23 25 23 2z
m-2290 -55 c0 -9 -10 -24 -22 -32 -27 -19 -38 -20 -38 -3 0 6 -7 25 -15 41 -9
16 -14 30 -13 31 2 1 17 7 33 12 26 9 32 7 42 -11 7 -12 12 -29 13 -38z m-491
30 c21 -7 23 -13 18 -49 -3 -22 -8 -43 -11 -46 -3 -3 -24 1 -48 8 -40 13 -43
17 -42 47 4 66 8 68 83 40z m1021 12 c8 -5 12 -11 9 -15 -3 -3 -83 -8 -177
-12 -126 -4 -172 -3 -172 5 0 8 21 10 73 6 50 -4 86 -1 117 9 52 17 128 21
150 7z m-2203 -32 c-3 -7 -5 -2 -5 12 0 14 2 19 5 13 2 -7 2 -19 0 -25z m2318
22 c4 -6 -7 -10 -25 -10 -18 0 -29 4 -25 10 3 6 15 10 25 10 10 0 22 -4 25
-10z m-739 -17 c15 -20 19 -69 6 -77 -4 -2 -23 -7 -42 -11 l-35 -6 -2 50 c-1
39 2 51 15 54 33 9 45 7 58 -10z m-300 -3 c21 0 24 -4 24 -37 0 -54 -9 -63
-56 -56 l-41 5 8 42 c5 22 8 45 9 50 0 4 7 5 16 2 9 -3 27 -6 40 -6z m212 -47
c-3 -48 -3 -48 -40 -51 l-38 -3 0 50 0 51 41 0 40 0 -3 -47z m-92 13 c12 -48
-3 -66 -52 -66 -41 0 -44 2 -34 19 5 11 10 31 10 45 0 23 4 26 35 26 28 0 36
-4 41 -24z m-527 -24 c13 -8 33 -15 44 -18 11 -2 24 -9 29 -16 4 -7 8 -10 8
-5 0 4 18 -2 40 -13 118 -60 215 -80 391 -80 150 0 218 17 348 87 96 51 82 50
286 12 90 -16 164 -22 297 -24 l178 -2 20 35 21 35 24 -24 c22 -23 80 -169 66
-169 -10 0 -71 98 -71 115 0 28 -18 15 -24 -17 -4 -18 -9 -114 -12 -213 -5
-157 -3 -196 16 -309 40 -239 115 -439 199 -536 40 -47 65 -51 36 -6 -24 36
-91 596 -73 608 9 5 15 -3 20 -30 35 -174 50 -283 58 -417 7 -108 16 -170 29
-205 11 -28 18 -50 16 -50 -2 0 -20 9 -39 21 -31 18 -36 19 -36 5 0 -14 -4
-15 -20 -6 -11 6 -20 9 -20 7 0 -3 -28 1 -62 9 -64 13 -69 12 -138 -22 -3 -1
-12 2 -20 8 -13 8 -13 9 1 5 9 -3 22 -1 30 5 10 6 3 8 -23 6 -21 -2 -38 -1
-38 2 0 3 -9 11 -21 18 -12 8 -18 9 -14 2 4 -6 -8 -2 -25 9 -24 14 -45 18 -86
15 -36 -3 -53 -1 -49 6 3 5 1 10 -4 10 -6 0 -11 -5 -11 -11 0 -5 -5 -7 -10 -4
-6 4 -8 11 -5 16 3 5 -1 6 -9 3 -9 -3 -16 -1 -16 5 0 6 5 11 10 11 6 0 10 5
10 11 0 7 -21 9 -59 7 -33 -2 -58 -1 -56 2 5 8 -115 38 -185 46 -30 4 -62 10
-70 15 -33 16 -179 25 -310 19 -19 -1 -54 0 -78 3 -23 3 -40 2 -38 -2 3 -4 -1
-8 -9 -8 -8 0 -12 3 -10 7 4 7 -82 5 -185 -4 -37 -3 -50 -2 -40 5 13 8 12 11
-4 20 -10 6 -26 19 -36 29 -10 10 -21 15 -25 12 -4 -4 -5 -2 -3 3 2 6 -15 31
-36 55 -21 25 -36 38 -31 30 9 -19 -105 99 -125 129 -8 13 -23 32 -32 43 -10
11 -20 29 -23 39 -4 11 -11 19 -16 19 -5 0 -8 3 -7 8 1 4 -4 21 -12 37 -12 29
-21 50 -51 125 -18 46 -15 211 4 265 10 25 12 42 5 46 -5 3 -2 9 8 13 9 3 14
9 11 12 -3 3 1 24 9 46 8 22 12 55 10 73 -4 33 3 52 13 38 3 -5 17 -14 30 -21z
m3036 -208 c208 -288 282 -419 380 -673 42 -107 55 -130 97 -170 26 -25 48
-50 48 -56 0 -14 -67 -79 -98 -94 -29 -15 -30 -11 -34 104 -4 89 -4 91 -62
190 -120 205 -409 642 -465 702 -16 17 -54 47 -85 67 -31 20 -56 37 -56 39 0
3 24 4 53 3 36 0 64 6 87 20 l35 21 14 -26 c8 -14 47 -71 86 -127z m-3705 106
c-16 -31 -23 -19 -9 16 6 16 13 24 16 17 2 -7 -1 -22 -7 -33z m-238 13 c2 -10
2 -45 -1 -78 l-6 -60 -12 41 c-18 56 -17 114 1 114 7 0 16 -8 18 -17z m92 -8
c-6 -31 -47 -149 -55 -159 -10 -11 0 95 12 146 7 27 14 36 28 35 14 -1 18 -7
15 -22z m104 0 c1 -1 -14 -36 -33 -78 -19 -41 -43 -107 -52 -146 -18 -75 -29
-87 -39 -46 -13 52 2 139 39 218 35 75 37 78 59 66 13 -6 24 -13 26 -14z m70
-118 c-73 -117 -78 -124 -78 -106 0 28 30 130 50 169 19 37 21 38 50 29 l29
-11 -51 -81z m3199 20 c22 -24 45 -53 51 -63 9 -17 34 -166 29 -170 -1 -1 -37
42 -79 95 -75 92 -78 98 -78 149 0 48 2 52 18 43 10 -5 37 -30 59 -54z m-131
-4 c4 -21 7 -41 6 -45 -1 -5 3 -7 10 -5 6 1 26 -22 43 -50 18 -29 36 -49 41
-45 4 4 2 -2 -6 -12 -14 -18 -13 -19 3 -13 31 12 2 -27 -63 -84 -33 -28 -91
-87 -129 -129 l-69 -78 -28 20 c-53 37 -94 101 -94 145 0 76 -7 78 -187 75
-87 -1 -178 -3 -203 -5 l-45 -2 -13 54 c-22 91 1 152 56 150 15 0 74 2 132 5
58 3 182 8 275 10 150 3 175 6 210 24 22 12 43 21 46 22 4 0 10 -17 15 -37z
m172 -272 c-13 -9 -43 -29 -68 -43 -25 -14 -80 -47 -123 -72 l-78 -46 27 35
c15 20 68 74 118 121 l91 84 28 -31 28 -30 -23 -18z m242 7 c0 -9 -7 -24 -16
-33 -10 -10 -21 -47 -27 -95 -8 -60 -14 -80 -27 -83 -13 -3 -22 10 -39 57 -12
33 -21 78 -21 99 0 25 -7 43 -20 54 -29 25 -25 33 20 33 22 0 54 9 72 20 l33
20 12 -27 c7 -16 12 -36 13 -45z m-730 -39 c3 -24 11 -54 18 -66 12 -22 11
-23 -28 -23 l-40 0 0 75 c0 73 0 74 23 66 17 -6 23 -18 27 -52z m574 -11 c3
-17 6 -43 6 -59 0 -16 4 -37 10 -47 29 -51 172 -463 244 -702 52 -176 135
-509 151 -608 5 -29 19 -57 46 -88 21 -25 39 -55 39 -66 0 -19 -2 -19 -21 5
-11 15 -45 75 -76 134 -30 60 -77 149 -103 198 -26 50 -65 133 -85 185 -21 52
-41 100 -46 105 -14 19 -112 269 -168 430 -57 163 -94 231 -179 333 -47 56
-64 62 -113 36 -17 -8 -38 -14 -47 -12 -10 2 41 38 123 87 77 46 146 89 153
96 23 21 59 6 66 -27z m221 -29 c23 -44 21 -77 -8 -134 -53 -103 -56 -102 -57
13 0 78 4 109 16 127 21 33 30 31 49 -6z m-875 -73 c0 -65 -19 -385 -26 -448
-10 -88 -29 -74 -27 19 2 42 -1 81 -6 87 -4 6 -9 37 -10 68 -1 32 -4 65 -5 75
-2 10 -7 66 -11 126 l-7 107 24 0 c21 0 24 -5 26 -37 4 -54 12 -54 12 -1 0 33
4 45 15 45 11 0 15 -11 15 -41z m437 -78 c36 -40 69 -110 113 -233 130 -373
266 -681 454 -1035 70 -131 98 -174 137 -208 l49 -44 0 -64 c0 -51 -4 -68 -20
-84 -23 -23 -24 -23 -90 -9 -33 7 -50 16 -50 26 0 8 -6 21 -14 29 -22 21 -42
89 -65 213 -22 119 -76 253 -161 401 -60 104 -129 247 -165 339 -18 47 -75
183 -128 301 -52 118 -98 224 -101 235 -4 11 -26 34 -48 50 -23 17 -43 35 -45
41 -3 10 82 63 103 64 6 0 20 -10 31 -22z m353 -13 c0 -16 -17 -19 -46 -8 -16
6 -16 7 2 14 30 12 44 10 44 -6z m-498 -303 c-49 -86 -133 -242 -185 -347 -90
-179 -107 -205 -165 -239 -34 -20 234 493 346 662 60 91 77 111 84 98 7 -12
-13 -56 -80 -174z m111 96 c8 -30 -38 -137 -129 -298 -68 -120 -186 -288 -215
-306 -6 -3 34 81 88 187 106 209 234 438 244 439 4 0 9 -10 12 -22z m917 -93
c22 -48 35 -115 22 -115 -5 0 -12 8 -15 18 -3 9 -17 50 -31 90 -14 41 -26 77
-26 80 1 13 31 -33 50 -73z m-915 -220 c-72 -107 -269 -418 -337 -533 -23 -39
-26 -41 -31 -22 -3 12 -10 19 -16 16 -6 -4 -7 -40 -4 -94 6 -88 5 -89 -22
-110 -15 -12 -31 -22 -35 -22 -3 0 -21 20 -38 44 l-32 44 -75 -5 -75 -6 0 35
c0 40 28 81 70 103 27 14 29 14 32 -5 5 -37 23 -22 28 24 5 41 10 48 86 109
82 66 157 147 231 247 65 87 233 399 233 432 0 7 15 -21 34 -62 l33 -75 -82
-120z m-595 204 c0 -5 -4 -9 -8 -9 -5 0 -9 7 -9 15 0 8 4 12 9 9 4 -3 8 -9 8
-15z m-1320 -9 c0 -5 -5 -10 -11 -10 -5 0 -7 5 -4 10 3 6 8 10 11 10 2 0 4 -4
4 -10z m2870 -186 c0 -17 -6 -24 -20 -24 -14 0 -20 7 -20 23 0 13 3 26 6 30
12 12 34 -6 34 -29z m188 -38 c-2 -2 -19 -6 -38 -10 l-34 -6 34 36 35 35 3
-26 c2 -15 2 -28 0 -29z m-151 -57 c12 -11 8 -31 -13 -63 -11 -17 -13 -15 -20
20 -3 22 -14 47 -22 57 -15 17 -14 17 13 7 16 -6 35 -16 42 -21z m-83 5 c15
-6 23 -54 11 -66 -3 -3 -19 6 -36 21 -27 24 -28 27 -12 38 20 15 17 15 37 7z
m226 -39 c0 -31 -3 -35 -26 -35 -23 0 -63 33 -64 52 0 4 17 9 38 11 20 2 40 4
45 5 4 1 7 -14 7 -33z m50 -31 c0 -2 -7 -4 -15 -4 -11 0 -15 11 -15 38 l1 37
14 -34 c8 -18 15 -35 15 -37z m-140 -4 c0 -3 -9 -11 -20 -18 -22 -14 -25 -6
-13 37 6 23 7 23 20 6 7 -11 13 -21 13 -25z m-177 -18 c23 -20 22 -54 -4 -104
-13 -25 -18 -49 -14 -65 9 -37 -3 -44 -30 -17 -13 13 -33 24 -45 24 -21 0 -26
10 -11 26 5 5 14 34 20 64 20 94 39 110 84 72z m330 -70 c4 -31 20 -110 37
-174 34 -132 37 -156 10 -83 -10 28 -28 74 -39 104 -25 62 -44 221 -25 214 6
-2 14 -30 17 -61z m-100 -49 c5 -90 25 -155 59 -205 24 -35 16 -48 -26 -48
l-33 0 -6 68 c-4 37 -20 108 -37 157 -16 49 -30 92 -30 95 0 7 53 28 61 24 3
-2 9 -43 12 -91z m60 15 c3 -60 13 -104 36 -161 34 -86 39 -117 16 -117 -8 0
-15 8 -15 19 0 10 -13 45 -30 77 -29 58 -34 80 -44 202 -5 55 -4 62 13 62 16
0 19 -11 24 -82z m-343 -128 c0 -11 -4 -20 -9 -20 -5 0 -14 -14 -21 -30 -14
-35 -41 -53 -64 -44 -18 7 -21 30 -5 40 6 3 17 22 25 40 12 28 20 34 44 34 23
0 30 -4 30 -20z m405 -235 c50 -78 51 -81 16 -93 -37 -13 -43 -7 -75 76 -25
63 -25 65 17 71 4 0 23 -24 42 -54z m42 18 c29 -38 71 -133 58 -133 -3 0 -13
18 -24 39 -10 22 -28 56 -41 75 -22 37 -18 50 7 19z m-1221 -102 c-23 -22 -28
-24 -36 -11 -12 19 23 52 46 43 13 -5 11 -11 -10 -32z m-533 -32 c43 -56 70
-63 113 -25 l28 23 33 -19 c18 -11 33 -23 33 -28 0 -4 -37 -10 -82 -12 -73 -4
-84 -8 -101 -29 l-18 -25 -87 23 c-48 12 -99 22 -114 22 -16 1 -28 4 -28 7 0
4 16 28 35 55 33 44 40 48 83 52 26 2 52 4 57 5 6 0 27 -21 48 -49z m587 20
c0 -6 -5 -19 -10 -30 -9 -15 -13 -17 -24 -7 -12 11 -12 16 1 31 18 19 33 22
33 6z m-114 -31 c4 -5 -23 -8 -60 -8 -37 0 -79 -6 -94 -14 -24 -12 -72 -7 -72
8 0 19 209 31 226 14z m1325 -31 c33 -47 51 -77 45 -77 -10 0 -96 82 -96 91 0
18 35 8 51 -14z m-1291 -15 c0 -25 -77 -72 -117 -72 -30 0 -33 3 -33 29 0 17
-5 33 -12 37 -18 11 13 19 92 22 62 2 70 0 70 -16z m-202 -70 c-3 -44 -4 -45
-53 -62 -95 -32 -105 -33 -105 -10 0 26 -16 57 -42 87 l-20 21 59 7 c32 4 72
10 88 14 17 4 40 3 53 -2 20 -9 23 -17 20 -55z m-410 -3 c88 -23 120 -24 143
-3 16 15 19 13 44 -24 40 -60 29 -100 -48 -179 l-60 -62 -51 5 c-81 8 -157 25
-213 46 -53 19 -53 20 -53 63 0 59 10 81 63 138 50 53 37 52 175 16z m1527
-279 c11 -5 28 -11 38 -14 18 -6 24 -26 7 -26 -16 0 -176 -139 -203 -177 l-24
-34 -49 37 c-27 20 -68 54 -91 76 l-41 40 16 44 16 43 70 -4 c71 -4 136 13
136 35 0 6 6 17 13 24 10 12 19 10 52 -11 22 -13 49 -28 60 -33z m179 -37 c5
-3 1 -10 -7 -15 -16 -8 -77 14 -77 28 0 7 70 -5 84 -13z m-574 -27 c-17 -45
-12 -65 15 -72 14 -3 35 -18 48 -33 12 -14 45 -42 72 -60 79 -55 84 -72 25
-90 -35 -10 -46 -9 -88 9 -27 12 -68 41 -92 65 -38 39 -42 47 -36 77 7 40 54
143 61 136 3 -3 1 -17 -5 -32z m519 -10 c9 -11 6 -17 -14 -30 -23 -15 -30 -15
-56 -4 -30 13 -38 33 -16 41 25 11 75 7 86 -7z m155 4 c6 0 35 -18 65 -40 48
-36 59 -40 111 -40 l58 0 -15 -40 c-14 -35 -19 -39 -42 -33 -50 11 -135 58
-182 100 -26 24 -53 43 -60 44 -8 0 -5 4 6 9 11 5 26 7 33 4 8 -2 19 -4 26 -4z
m-22 -75 c30 -25 90 -61 134 -81 43 -20 81 -38 83 -40 2 -2 -4 -11 -14 -20
-16 -17 -20 -17 -66 -1 -59 21 -189 95 -189 108 0 5 -3 8 -7 8 -13 -2 -73 25
-73 33 0 11 43 38 61 38 9 0 41 -20 71 -45z m-208 12 c18 -13 18 -15 1 -40
-14 -22 -19 -24 -36 -14 -20 12 -23 25 -13 51 7 20 24 20 48 3z m-98 -31 c-36
-20 -66 -59 -78 -98 -8 -26 -17 -38 -30 -38 -24 0 -23 4 12 54 30 45 101 108
110 99 3 -3 -4 -10 -14 -17z m209 -25 c9 -15 177 -109 207 -116 27 -7 27 -8
10 -31 -9 -13 -27 -24 -39 -24 -30 0 -101 28 -138 55 -16 12 -54 35 -82 50
-54 27 -63 41 -41 63 14 14 74 16 83 3z m483 -20 c15 -11 53 -27 85 -36 60
-16 78 -36 60 -64 -14 -21 -89 -16 -156 10 -26 10 -59 19 -72 19 -23 0 -25 4
-25 44 0 26 5 47 13 50 20 9 65 -2 95 -23z m-630 -22 c2 -21 -3 -29 -27 -38
-16 -7 -37 -21 -47 -32 -36 -40 -47 14 -14 69 17 28 25 33 53 30 26 -2 33 -8
35 -29z m121 -65 c29 -20 78 -47 108 -60 55 -25 62 -44 17 -44 -36 0 -230 120
-212 131 21 14 30 11 87 -27z m499 -29 c39 -14 82 -25 94 -25 32 0 10 -15 -40
-28 -48 -11 -88 -4 -147 27 -21 12 -46 21 -55 21 -28 1 21 30 50 30 15 0 59
-11 98 -25z m-508 -39 c74 -45 85 -55 82 -76 -2 -14 -6 -27 -8 -29 -2 -2 -36
12 -75 32 -47 24 -85 37 -111 37 -76 0 -99 32 -52 69 39 31 70 25 164 -33z
m438 -28 c45 -23 82 -47 82 -52 0 -5 -28 -6 -62 -3 -68 5 -188 51 -188 72 0
41 69 34 168 -17z m-101 -54 c48 -26 93 -51 98 -56 18 -18 -69 0 -147 31 -40
15 -81 31 -92 35 -15 5 -16 9 -6 21 20 25 53 17 147 -31z m-175 -3 c13 -5 49
-19 81 -31 32 -13 56 -28 54 -34 -6 -16 -110 -10 -146 9 -29 14 -40 42 -24 58
8 9 8 9 35 -2z"/>
<path d="M3080 7723 c0 -15 89 -52 149 -63 30 -6 117 -15 195 -21 122 -9 215
-23 291 -45 13 -4 17 -3 10 4 -19 19 -143 42 -276 52 -156 12 -249 26 -291 43
-26 11 -18 12 69 12 63 0 105 5 118 13 18 11 16 12 -15 5 -39 -8 -180 -7 -222
3 -16 3 -28 2 -28 -3z"/>
<path d="M3710 7721 c0 -5 42 -12 93 -16 205 -15 318 -47 403 -112 24 -18 41
-26 38 -19 -6 17 -48 48 -100 74 -57 29 -143 49 -264 62 -58 6 -120 12 -137
15 -18 2 -33 0 -33 -4z"/>
<path d="M3306 7548 c56 -96 132 -178 165 -178 7 0 -6 13 -28 29 -22 16 -51
44 -64 62 l-24 33 40 -24 c22 -13 49 -30 61 -37 11 -7 74 -31 140 -54 92 -31
140 -42 209 -46 100 -6 115 -15 115 -71 0 -19 4 -31 10 -27 10 6 3 58 -11 86
-6 12 -31 18 -100 23 -167 13 -394 101 -473 185 -30 31 -54 42 -40 19z"/>
<path d="M3810 7525 c0 -53 109 -153 193 -177 56 -15 70 -27 56 -44 -6 -7 -23
-16 -39 -19 -34 -8 -49 -24 -83 -94 -39 -80 -34 -99 16 -66 13 8 74 26 137 40
62 14 129 34 147 45 37 22 68 26 78 10 4 -6 21 8 38 29 94 117 102 137 70 174
-10 11 -13 17 -6 13 7 -3 2 14 -10 39 -25 52 -42 56 -121 29 -38 -13 -78 -15
-214 -12 -164 4 -179 7 -254 46 -5 2 -8 -4 -8 -13z m261 -62 c129 -5 165 -3
204 11 75 25 95 22 95 -14 0 -18 8 -37 20 -47 22 -19 27 -45 8 -38 -14 5 -78
-48 -78 -64 0 -12 -65 -63 -105 -84 -16 -8 -68 -23 -115 -32 -47 -9 -100 -23
-119 -31 -39 -16 -38 -11 3 54 19 31 34 42 70 51 25 6 53 11 62 11 53 0 137
71 119 100 -3 5 11 10 32 12 20 2 38 9 41 16 3 10 -9 12 -49 10 -50 -3 -54 -5
-64 -33 -13 -40 -20 -44 -69 -38 -95 11 -201 60 -256 118 l-23 24 34 -10 c19
-6 104 -13 190 -16z"/>
<path d="M4470 7454 c0 -3 9 -17 20 -31 35 -44 17 -143 -31 -177 -22 -15 -15
-26 17 -26 16 0 26 10 38 40 18 46 21 132 6 160 -10 19 -50 46 -50 34z"/>
<path d="M4428 7309 c-16 -11 -28 -25 -28 -30 0 -17 26 -9 48 14 38 40 25 50
-20 16z"/>
<path d="M3565 7284 c-67 -32 -170 -34 -208 -4 -15 12 -28 16 -32 11 -6 -10
37 -41 104 -75 42 -22 132 -32 157 -18 15 9 6 11 -42 11 -33 -1 -76 6 -95 14
l-34 14 55 7 c30 5 75 17 99 27 48 21 121 25 153 8 11 -6 22 -8 25 -5 10 10
-65 36 -99 35 -18 0 -55 -11 -83 -25z"/>
<path d="M3060 7254 c0 -32 186 -194 221 -194 8 0 -2 10 -21 22 -48 30 -132
100 -126 105 2 2 22 -7 43 -21 74 -49 142 -66 265 -66 84 -1 127 -5 168 -20
64 -22 80 -18 24 7 -27 12 -82 19 -185 23 -143 7 -149 8 -222 44 -41 21 -93
53 -115 72 -39 33 -52 40 -52 28z"/>
<path d="M4010 7130 c0 -5 16 -10 35 -10 44 0 66 -31 73 -102 4 -41 2 -50 -9
-46 -52 20 -210 60 -215 55 -4 -3 -3 -31 0 -61 9 -70 55 -145 91 -147 14 -1
31 -2 38 -3 6 -1 23 4 37 12 16 9 11 1 -14 -22 -23 -21 -33 -36 -25 -36 22 0
80 60 96 100 19 43 21 177 4 217 -7 17 -24 35 -37 42 -31 14 -74 14 -74 1z
m-32 -161 c-21 -12 -24 -49 -6 -67 16 -16 53 -15 66 1 5 6 12 23 15 37 4 22 4
22 6 -5 1 -39 -14 -55 -55 -55 -31 0 -46 10 -56 40 -8 24 10 60 29 60 17 -1
17 -1 1 -11z m40 -30 c-2 -6 -8 -10 -13 -10 -5 0 -11 4 -13 10 -2 6 4 11 13
11 9 0 15 -5 13 -11z"/>
<path d="M3932 7088 c-14 -14 -16 -42 -2 -33 14 9 32 45 22 45 -4 0 -13 -5
-20 -12z"/>
<path d="M4330 7080 c-12 -7 -8 -10 15 -10 17 0 41 -3 55 -6 l25 -5 -25 15
c-29 18 -49 20 -70 6z"/>
<path d="M4277 7062 c-43 -47 -63 -182 -36 -235 17 -33 61 -77 76 -77 8 0 2
11 -14 24 l-28 24 46 -5 c77 -9 149 48 153 120 l1 32 -109 8 c-61 4 -112 9
-114 12 -8 7 10 45 34 74 26 31 18 53 -9 23z m33 -147 c-17 -20 -5 -62 20 -70
32 -10 60 12 60 48 0 24 3 28 10 17 12 -19 3 -51 -18 -67 -40 -32 -92 -1 -92
54 0 24 4 33 16 33 13 0 14 -3 4 -15z m50 -26 c0 -5 -7 -9 -15 -9 -15 0 -20
12 -9 23 8 8 24 -1 24 -14z"/>
<path d="M3137 6998 c26 -45 132 -157 175 -184 56 -36 155 -66 192 -59 39 8
76 26 76 37 0 5 -14 1 -32 -8 -44 -23 -120 -13 -195 24 -60 31 -162 129 -199
191 -10 17 -22 31 -27 31 -4 0 0 -14 10 -32z"/>
<path d="M4450 7010 c0 -8 5 -22 10 -30 9 -13 10 -13 10 0 0 8 -5 22 -10 30
-9 13 -10 13 -10 0z"/>
<path d="M4113 6815 c-15 -19 -40 -58 -56 -87 -24 -45 -26 -54 -13 -66 11 -12
21 -12 47 -3 29 10 36 8 66 -15 29 -22 34 -23 39 -9 11 27 -5 167 -21 192 -21
31 -29 29 -62 -12z"/>
<path d="M2177 4444 c-4 -4 -7 -17 -7 -28 1 -19 1 -20 11 -3 11 19 8 43 -4 31z"/>
<path d="M3636 4424 c-4 -14 -5 -29 -2 -31 3 -3 8 7 12 21 3 15 4 29 1 32 -2
3 -8 -7 -11 -22z"/>
<path d="M3621 4333 c0 -25 1 -26 9 -8 12 27 12 35 0 35 -5 0 -10 -12 -9 -27z"/>
<path d="M2167 4331 c-2 -10 -1 -25 4 -32 6 -10 9 -4 9 19 0 36 -5 42 -13 13z"/>
<path d="M3622 4240 c0 -19 2 -27 5 -17 2 9 2 25 0 35 -3 9 -5 1 -5 -18z"/>
<path d="M2190 4238 c0 -8 7 -21 15 -28 19 -16 19 -1 0 24 -12 16 -15 17 -15
4z"/>
<path d="M2246 4158 c20 -34 57 -77 70 -82 8 -3 -4 17 -27 44 -41 48 -58 64
-43 38z"/>
<path d="M3620 4148 c0 -16 5 -28 10 -28 13 0 13 20 0 40 -8 12 -10 9 -10 -12z"/>
<path d="M3630 4055 c0 -9 -9 -15 -22 -15 -13 0 -30 -5 -38 -11 -11 -8 -5 -9
23 -4 29 5 37 3 37 -10 0 -8 4 -15 8 -15 4 0 6 16 4 35 -4 35 -12 48 -12 20z"/>
<path d="M2374 4021 c20 -22 26 -25 26 -13 0 4 -10 13 -22 21 -23 14 -23 14
-4 -8z"/>
<path d="M3445 4010 c-13 -5 -14 -9 -5 -9 8 0 24 4 35 9 13 5 14 9 5 9 -8 0
-24 -4 -35 -9z"/>
<path d="M2460 3982 c53 -18 85 -24 75 -13 -5 5 -30 12 -55 15 -31 4 -37 3
-20 -2z"/>
<path d="M3285 3980 l-20 -9 20 0 c11 0 29 4 40 9 l20 9 -20 0 c-11 0 -29 -4
-40 -9z"/>
<path d="M2605 3950 c17 -4 41 -8 55 -9 20 0 22 1 10 9 -8 5 -33 9 -55 9 -39
-1 -39 -2 -10 -9z"/>
<path d="M3153 3953 c-18 -2 -33 -8 -33 -13 0 -8 67 4 77 14 4 3 2 5 -3 4 -5
0 -24 -3 -41 -5z"/>
<path d="M3641 3940 c0 -14 4 -32 9 -40 8 -12 10 -12 9 5 0 11 -4 29 -9 40 -8
18 -9 18 -9 -5z"/>
<path d="M2738 3933 c12 -2 32 -2 45 0 12 2 2 4 -23 4 -25 0 -35 -2 -22 -4z"/>
<path d="M2860 3930 c-24 -8 -24 -8 5 -9 17 0 37 4 45 9 12 8 11 10 -5 9 -11
-1 -31 -5 -45 -9z"/>
<path d="M3000 3930 c-35 -7 -35 -7 -5 -9 17 0 37 4 45 9 17 11 11 11 -40 0z"/>
<path d="M3661 3838 c-1 -15 4 -30 9 -33 12 -7 12 12 0 40 -8 18 -9 17 -9 -7z"/>
<path d="M3686 3720 c3 -14 10 -32 15 -40 7 -12 8 -11 9 6 0 11 -7 29 -16 40
-14 18 -15 18 -8 -6z"/>
<path d="M3731 3600 c0 -8 6 -26 14 -40 8 -14 14 -19 14 -10 0 8 -6 26 -14 40
-8 14 -14 19 -14 10z"/>
<path d="M3780 3485 c0 -13 24 -55 32 -55 5 0 2 14 -7 30 -14 27 -25 38 -25
25z"/>
<path d="M3850 3371 c0 -5 14 -19 30 -31 17 -12 30 -17 30 -13 0 5 -13 19 -30
31 -16 13 -30 18 -30 13z"/>
<path d="M4038 3780 c-3 -16 -1 -30 4 -30 4 0 8 14 8 30 0 17 -2 30 -4 30 -2
0 -6 -13 -8 -30z"/>
<path d="M4028 3660 c-3 -16 -1 -30 4 -30 4 0 8 14 8 30 0 17 -2 30 -4 30 -2
0 -6 -13 -8 -30z"/>
</g>
</svg>
